<svg xmlns="http://www.w3.org/2000/svg" viewBox="244 479 33.678 26.024"><g data-name="Group 2"><path data-name="Path 124" d="M253.328 479a2.683 2.683 0 0 0-2.512 1.71c-.005.014-.019.022-.024.036l-1.244 2.846h-2.869a2.679 2.679 0 0 0 0 5.358h.048a4.613 4.613 0 0 0-1.2 3.1v7.618a.765.765 0 0 0 .765.765h2.3v3.827a.765.765 0 0 0 .765.765h4.593a.765.765 0 0 0 .765-.765v-3.828h12.247v3.827a.765.765 0 0 0 .765.765h4.593a.765.765 0 0 0 .765-.765v-3.827h2.3a.765.765 0 0 0 .765-.765v-7.619a4.613 4.613 0 0 0-1.2-3.1h.05a2.679 2.679 0 0 0 0-5.358h-2.87l-1.244-2.846c-.005-.014-.019-.022-.024-.036A2.683 2.683 0 0 0 268.35 479zm0 1.531h15.022a1.536 1.536 0 0 1 1.1.753l.012.036 2.679 6.147a4.5 4.5 0 0 0-.6-.048h-21.406a4.5 4.5 0 0 0-.6.048l2.679-6.147.012-.036a1.536 1.536 0 0 1 1.102-.753zm-6.65 4.592h2.2l-1 2.3h-1.2a1.15 1.15 0 0 1 0-2.3zm26.12 0H275a1.15 1.15 0 0 1 0 2.3h-1.2zm-22.663 3.827h21.408a3.064 3.064 0 0 1 3.074 3.1v6.85h-27.555v-6.852a3.064 3.064 0 0 1 3.073-3.098zm-.849 3.062a.765.765 0 0 0-.694.765v3.823a.765.765 0 0 0 .765.765h3.143a2.68 2.68 0 0 0 0-5.358h-3.142l-.072.005zm19.889 0a2.68 2.68 0 0 0 0 5.358h3.145a.765.765 0 0 0 .765-.765v-3.828a.765.765 0 0 0-.765-.765zm-19.052 1.531h2.377a1.151 1.151 0 0 1 0 2.3h-2.38zm19.052 0h2.38v2.3h-2.38a1.151 1.151 0 0 1 0-2.3zm-19.052 6.889h3.062v3.062h-3.062zm18.37 0h3.062v3.062h-3.062z" fill="#f1d547"/></g></svg>