<svg id="Group_4" data-name="Group 4" xmlns="http://www.w3.org/2000/svg" viewBox="486.65 482 73.085 20.83"><defs><style>.cls-1{fill:#f98c2d;stroke:#f98c2d;stroke-width:.7px}</style></defs><path id="Path_1" data-name="Path 1" class="cls-1" d="M12.568 16a1.889 1.889 0 0 0-1.768 1.2c0 .01-.013.016-.017.025l-.876 2H7.886a1.886 1.886 0 1 0 0 3.772h.034a3.248 3.248 0 0 0-.842 2.181v5.364a.539.539 0 0 0 .539.539h1.616v2.695a.539.539 0 0 0 .539.539h3.234a.539.539 0 0 0 .539-.539V31.09h8.623v2.695a.539.539 0 0 0 .539.539h3.233a.539.539 0 0 0 .539-.539V31.09H28.1a.539.539 0 0 0 .539-.539v-5.364a3.248 3.248 0 0 0-.842-2.181h.034a1.886 1.886 0 1 0 0-3.772h-2.026l-.876-2c0-.01-.013-.016-.017-.025A1.889 1.889 0 0 0 23.144 16zm0 1.078h10.576a1.082 1.082 0 0 1 .775.531l.008.025 1.886 4.328a3.169 3.169 0 0 0-.421-.034H10.32a3.168 3.168 0 0 0-.421.034l1.886-4.328.008-.025a1.082 1.082 0 0 1 .775-.531zm-4.682 3.233h1.55l-.707 1.617h-.843a.808.808 0 1 1 0-1.617zm18.391 0h1.549a.808.808 0 1 1 0 1.617h-.842zM10.32 23.006h15.073a2.157 2.157 0 0 1 2.164 2.181v4.825H8.156v-4.825a2.157 2.157 0 0 1 2.164-2.181zm-.6 2.156a.539.539 0 0 0-.488.539V28.4a.539.539 0 0 0 .539.539h2.215a1.887 1.887 0 0 0 0-3.772H9.722zm14 0a1.887 1.887 0 0 0 0 3.772h2.22a.539.539 0 0 0 .539-.539V25.7a.539.539 0 0 0-.539-.539zm-13.409 1.077h1.676a.811.811 0 0 1 0 1.617h-1.676zm13.414 0H25.4v1.617h-1.675a.811.811 0 0 1 0-1.617zM10.311 31.09h2.156v2.156h-2.156zm12.934 0H25.4v2.156h-2.155z" transform="translate(529.672 466.5)"/><path id="Path_2" data-name="Path 2" class="cls-1" d="M32.555 17.967A.624.624 0 0 0 32 18.6v6.894a3.116 3.116 0 0 0 2.5 3.032v8.8a.624.624 0 1 0 1.248 0v-8.8a3.116 3.116 0 0 0 2.5-3.032V18.6a.624.624 0 1 0-1.248 0v6.894a1.829 1.829 0 0 1-1.248 1.745V18.66a.624.624 0 1 0-1.248 0v8.58a1.829 1.829 0 0 1-1.248-1.745V18.6a.624.624 0 0 0-.634-.634zm10.053.01a3.417 3.417 0 0 0-3.432 3.432v6.865a.624.624 0 0 0 .624.624h2.184v8.425a.624.624 0 1 0 1.248 0V20.785a.624.624 0 1 0-1.248 0v6.865h-1.56v-6.241a2.109 2.109 0 0 1 2.184-2.184.624.624 0 1 0 0-1.248z" transform="translate(455 464.533)"/><path id="Path_3" data-name="Path 3" d="M36.5 30.237a1.109 1.109 0 0 0-.062-.312l-2.434-5.772V18.38a.772.772 0 0 0-.78-.78H17.376a.772.772 0 0 0-.78.78v5.772l-2.434 5.772a.923.923 0 0 0-.062.312v7.551h1.56V34.73h19.252v3.058h1.56v-3.557h-.031a.608.608 0 0 0 .031-.25v-3.744zM17.782 25.4h2v.874a.772.772 0 0 0 .78.78h9.548a.772.772 0 0 0 .78-.78V25.4h1.966l1.716 4.056h-18.5zM29.3 22.5v3.027h-3.218V22.5zm-4.774 3.027h-3.218V22.5h3.214zm-6.37-6.367h14.26v4.68h-1.591v-2.121a.772.772 0 0 0-.78-.78h-9.517a.772.772 0 0 0-.78.78v2.122h-1.592zm-2.5 11.857h19.256V33.2H15.66z" transform="translate(491.965 464.4)" fill="#f98c2d"/></svg>