<svg xmlns="http://www.w3.org/2000/svg" viewBox="776.629 478 22.742 28.59"><g data-name="Group 3"><path data-name="Path 214" d="M798.274 478h-12a1 1 0 0 0-.8.6l-2.152 5.218-.294.132-1.279-3.076a1 1 0 0 0-1.015-.6c-1.072.368-2.143.912-3.2 1.381a1.012 1.012 0 0 0-.508 1.269l1.3 3.107-1.117.5a1 1 0 0 0-.579.893v18.193a1.013 1.013 0 0 0 .975.975h20.791a1.013 1.013 0 0 0 .975-.975v-26.64a.97.97 0 0 0-1.097-.977zm-11.245 1.949h7.939l-5.767 3.574h-3.648zm10.4.772v23.917h-18.851v-16.587l5.817-2.579h5.086a.971.971 0 0 0 .518-.152zm-17.094 1.817l.914 2.2-1.147.508-.914-2.2zm7.6 6.183a1.009 1.009 0 0 0-.9.924 6 6 0 0 1-1.8 3.594c-.945 1.136-2.112 2.418-2.112 4.284a5.033 5.033 0 0 0 1.056 3 4.888 4.888 0 0 0 7.655 0 5.077 5.077 0 0 0 1.036-3c.025-1.647-1.075-3.154-1.98-4.294a7.426 7.426 0 0 1-1.919-3.675 1.01 1.01 0 0 0-1.036-.832zm.132 3.9a17.017 17.017 0 0 0 1.289 1.827c.9 1.138 1.548 1.972 1.564 3.076a3.13 3.13 0 0 1-.65 1.817 2.574 2.574 0 0 1-2.274 1.076 2.6 2.6 0 0 1-2.264-1.076 3.493 3.493 0 0 1-.66-1.817c0-1.03.69-1.875 1.655-3.036a14.041 14.041 0 0 0 1.34-1.868z" fill="#f98c2d"/></g></svg>