<svg id="Group_5" data-name="Group 5" xmlns="http://www.w3.org/2000/svg" viewBox="997.875 481.743 54.291 20.362"><defs><style>.cls-1{fill:#46aa50}</style></defs><path id="Path_4" data-name="Path 4" class="cls-1" d="M21.894 22.55a.994.994 0 1 0 0 1.989h2.486v3.829a.994.994 0 0 0 1.989 0v-3.829H33.5a.994.994 0 0 0 0-1.989h-7.13v-2.064h3.854A5.743 5.743 0 1 0 30.223 9H25.4a.967.967 0 0 0-.97.82 1.248 1.248 0 0 0-.05.3v8.354h-2.486a.994.994 0 1 0 0 1.989h2.486v2.064h-2.486zm4.476-11.561h3.854a3.754 3.754 0 1 1 0 7.508H26.37z" transform="translate(976.975 472.743)"/><path id="Path_5" data-name="Path 5" class="cls-1" d="M21.894 22.55a.994.994 0 1 0 0 1.989h2.486v3.829a.994.994 0 0 0 1.989 0v-3.829H33.5a.994.994 0 0 0 0-1.989h-7.13v-2.064h3.854A5.743 5.743 0 1 0 30.223 9H25.4a.967.967 0 0 0-.97.82 1.248 1.248 0 0 0-.05.3v8.354h-2.486a.994.994 0 1 0 0 1.989h2.486v2.064h-2.486zm4.476-11.561h3.854a3.754 3.754 0 1 1 0 7.508H26.37z" transform="translate(996.587 472.743)"/><path id="Path_6" data-name="Path 6" class="cls-1" d="M21.894 22.55a.994.994 0 1 0 0 1.989h2.486v3.829a.994.994 0 0 0 1.989 0v-3.829H33.5a.994.994 0 0 0 0-1.989h-7.13v-2.064h3.854A5.743 5.743 0 1 0 30.223 9H25.4a.967.967 0 0 0-.97.82 1.248 1.248 0 0 0-.05.3v8.354h-2.486a.994.994 0 1 0 0 1.989h2.486v2.064h-2.486zm4.476-11.561h3.854a3.754 3.754 0 1 1 0 7.508H26.37z" transform="translate(1016.2 472.743)"/></svg>