<svg xmlns="http://www.w3.org/2000/svg" viewBox="332.88 2739.3 53.264 44.453"><defs><style>.cls-1 { fill: #5a5a5a; stroke: #fff; stroke-width: 0.4px; }</style></defs><path id="Path_19" data-name="Path 19" class="cls-1" d="M367.441 2766.813H351.58a.832.832 0 0 0-.881.881v4.406a.832.832 0 0 0 .881.881h15.861a.832.832 0 0 0 .881-.881v-4.406a.832.832 0 0 0-.881-.881zm-.881 4.405h-14.1v-2.643h14.1zm12.335-4.405h-7.048a.832.832 0 0 0-.881.881v4.406a.832.832 0 0 0 .881.881h7.048a.832.832 0 0 0 .885-.881v-4.406a.832.832 0 0 0-.885-.881zm-.881 4.405h-5.286v-2.643h5.286zm-30.834-4.405h-7.052a.832.832 0 0 0-.881.881v4.406a.832.832 0 0 0 .881.881h7.052a.832.832 0 0 0 .881-.881v-4.406a.832.832 0 0 0-.881-.881zm-.881 4.405h-5.289v-2.643h5.286zm-5.289-11.454h37a.882.882 0 0 0 .793-1.322l-4.758-9.6a2.653 2.653 0 0 0-2.379-1.5h-24.313a2.6 2.6 0 0 0-2.379 1.5l-4.758 9.6a.9.9 0 0 0 .794 1.322zm5.55-10.044a1.013 1.013 0 0 1 .793-.529h24.227a.846.846 0 0 1 .792.529l4.143 8.28h-34.1zm37.62 3.88h-4.316l-3.612-7.225a4.51 4.51 0 0 0-3.965-2.467h-5.2l-1.5-3.877a.771.771 0 0 0-.789-.531h-10.573a.771.771 0 0 0-.793.529l-1.586 3.877h-5.2a4.51 4.51 0 0 0-3.966 2.466l-3.521 7.228h-4.317a1.767 1.767 0 0 0-1.762 1.759V2758a1.767 1.767 0 0 0 1.762 1.762h1.322a8.186 8.186 0 0 0-.441 2.555v18.593a2.6 2.6 0 0 0 2.643 2.643h4.405a2.6 2.6 0 0 0 2.643-2.643v-3.524h28.195v3.524a2.6 2.6 0 0 0 2.643 2.643h4.405a2.6 2.6 0 0 0 2.643-2.643v-18.591a8.186 8.186 0 0 0-.441-2.555h1.321a1.767 1.767 0 0 0 1.764-1.764v-2.641a1.767 1.767 0 0 0-1.764-1.759zm-29.338-12.338h9.338l1.057 2.643H353.78zm-20 14.1h3.438l-1.323 2.638h-2.115zm8.811 25.548a.832.832 0 0 1-.881.881h-4.406a.832.832 0 0 1-.881-.881v-4.41a4.53 4.53 0 0 0 2.643.881h3.524zm37 .881h-4.401a.832.832 0 0 1-.881-.881v-3.524h3.524a4.53 4.53 0 0 0 2.643-.886v4.41a.832.832 0 0 1-.881.881zm-1.762-6.167h-38.763a2.6 2.6 0 0 1-2.643-2.643v-10.662a6.9 6.9 0 0 1 .617-2.732l6.167-12.423a2.653 2.653 0 0 1 2.379-1.5h25.639a2.6 2.6 0 0 1 2.379 1.5l6.167 12.423a5.9 5.9 0 0 1 .617 2.732v10.661a2.474 2.474 0 0 1-2.555 2.644zM384.18 2758h-2.113l-1.322-2.643h3.435z"/></svg>