<svg xmlns="http://www.w3.org/2000/svg" viewBox="336.8 2345.3 46.8 58.989"><defs><style>.cls-1 { fill: #5a5a5a; stroke: #fff; stroke-width: 0.4px; }</style></defs><path id="Заявка" class="cls-1" d="M376.738 2389.702h-6.073v-6.073a.826.826 0 1 0-1.652 0v6.073h-6.073a.826.826 0 0 0 0 1.652h6.073v6.073a.826.826 0 0 0 1.652 0v-6.072h6.073a.826.826 0 1 0 0-1.652zm-1.838-11.757a13.4 13.4 0 0 0-1.65-.525v-21.274-.006-.005a.817.817 0 0 0-.276-.607l-9.713-9.784a.826.826 0 0 0-.586-.244h-23.527a2.151 2.151 0 0 0-2.148 2.148v44.9a2.151 2.151 0 0 0 2.148 2.148h17.793a13.558 13.558 0 1 0 17.959-16.751zm-11.445-29.66l6.975 7.024h-6.975zm-6.931 44.758h-17.376a.5.5 0 0 1-.5-.5v-44.895a.5.5 0 0 1 .5-.5H361.8v8.983a.827.827 0 0 0 .826.826h8.974v20.139a13.75 13.75 0 0 0-1.758-.126 13.52 13.52 0 0 0-13.318 16.073zm13.316 9.393a11.922 11.922 0 0 1-11.419-8.558v-.009a.811.811 0 0 0-.1-.373 11.841 11.841 0 0 1-.389-2.966 12.037 12.037 0 0 1 .091-1.481 11.908 11.908 0 1 1 11.817 13.387zm-25.73-40.16h22.031a.826.826 0 0 0 0-1.652h-22.032a.826.826 0 0 0 0 1.652zm0 4.517h22.031a.826.826 0 0 0 0-1.652h-22.032a.826.826 0 0 0 0 1.652zm0 4.516h22.031a.826.826 0 0 0 0-1.652h-22.032a.826.826 0 0 0 0 1.652zm0 4.516h22.031a.826.826 0 1 0 0-1.652h-22.032a.826.826 0 1 0 0 1.652zm12.975 3.695a.827.827 0 0 0-.826-.826h-12.15a.826.826 0 0 0 0 1.652h12.15a.826.826 0 0 0 .826-.826zm-3.966 3.691h-9.01a.826.826 0 0 0 0 1.652h9.01a.826.826 0 0 0 0-1.652z"/></svg>