<svg xmlns="http://www.w3.org/2000/svg" viewBox="700.48 2738.25 34.397 46.376"><defs><style>.cls-1 { fill: #5a5a5a; stroke: #fff; stroke-width: 0.5px; }</style></defs><path id="Path_20" data-name="Path 20" class="cls-1" d="M704.964 2738.5a1 1 0 0 0-1 1v42.884h-2.234a1 1 0 1 0 0 1.992h6.575a1 1 0 1 0 0-1.992h-2.345v-24.856h7.123v3.985a1 1 0 0 0 1 1h18.48a2.007 2.007 0 0 0 1.395-3.437l-5.031-4.981 5.081-5.131a2.081 2.081 0 0 0 .448-2.192 2 2 0 0 0-1.843-1.245h-17.537v-1a1 1 0 0 0-1-1h-8.116v-4.027a1 1 0 0 0-.996-1zm27.645 9.016l-5.779 5.828a.963.963 0 0 0 0 1.395l5.778 5.728h-17.532v-12.951zm-19.526-1.943V2755.486h-7.123v-9.963h7.123z"/></svg>