<svg width="176px" height="52px" xmlns="http://www.w3.org/2000/svg" viewBox="0 0 491.78 70.22"><title>бери такси</title><g id="Слой_2" data-name="Слой 2"><g id="Слой_1-2" data-name="Слой 1"><path d="M368.93.65c2.62-.14,4.76-.3,6.91-.36s4.31,0,7,0L410.58,64.7c1.18-1.54,2.1-2.62,2.87-3.79,4.86-7.37,9.57-14.84,14.58-22.1,2.12-3.07,2.09-5.53,0-8.61-5-7.47-9.79-15.09-14.48-22.76-1.12-1.83-1.51-4.1-2.47-6.8h16.29l13,20.66L454,.62h15.75c-.95,2.7-1.34,5-2.45,6.79-4.6,7.53-9.28,15-14.23,22.32-2.31,3.41-2.25,6.13.07,9.51,5.29,7.68,10.33,15.53,15.28,23.43,1.24,2,1.77,4.4,2.86,7.2h-16l-15-23L426,70H397.17c-1.47-3.39-3-6.84-4.46-10.33-1.28-3.12-3.3-4.65-6.86-4.57-7.82.19-15.64.06-24.06.06l-7.18,14.73h-13c.16-2.15-.18-4.26.52-5.93C350.9,43,359.85,22,368.93.65Zm7.76,21.81-1.19-.09-7.61,18H384.3Z"/><path d="M76.35.28c12.32.54,24-1.74,35.4,1.49C126,5.83,130.45,17,123.6,30.09c-.61,1.16-1.14,2.36-1.78,3.7A14.17,14.17,0,0,0,123.9,36c10.41,7,8.23,28.4-6.91,32.39a46.94,46.94,0,0,1-10.72,1.71c-9.79.23-19.58.08-29.92.08Zm14.47,55.2c6.87,0,13,.17,19.08-.07,3.46-.14,5.32-2.4,5.47-5.92.13-2.92-.74-5.78-3.77-6.18-6.81-.89-13.7-1.14-20.78-1.66Zm0-27.88c5.24,0,10.2.26,15.13-.08,3.81-.26,5.78-2.79,5.78-6.23s-1.8-5.63-4.92-5.87c-5.2-.39-10.45-.11-16-.11Z"/><path d="M10.33,56.07l-8-2.13V42.38l8.1-1.81V30.83L0,28.5,1.28,16.9,10.4,16,11.81.6H23.89l1.75,14.67c3.74,2.08,7.77.91,12,.69L39.14.84H51.37l1.2,15L61.78,17V29.59l-8.94.95V41.4l9.56.67V54.75L52.5,55.8l-1,14.07H39.23L37.89,55.74H25v14H11.86ZM37.64,41V30.78H25.48V41Z"/><path d="M225.25,48.29H213.91V69.9H201.17c-1.9-4-2.15-63.68-.08-69.63,5.67,0,11.63-.28,17.56.07a154.17,154.17,0,0,1,20.7,2.22C248,4.27,252.83,10,253.67,18.88c.57,6,.9,12.23-2.24,17.54-2.12,3.57-5.66,6.3-9,9.86,2.26,3.23,5.07,6.9,7.49,10.83s6.5,6.86,5.92,12.61H240.55ZM215,34.3c6.59-.39,12.4-.4,18.1-1.18,4.47-.62,6.31-3.91,6.26-9.3,0-5.1-1.77-8.07-5.93-8.37-6-.43-12.13-.11-18.42-.11Z"/><path d="M189,55.9V69.77H140.35c-.74-22.95-.48-45.89-.16-69.16h47.45l.81,14h-33V28.32H184.7V41.73H155.35V55.9Z"/><path d="M321.15,69.92H308c-1.6-18.15,0-36.23-1-55.24H288l.93-14h51.3l1,13.2c-3.63.39-6.63.84-9.64,1s-5.91,0-9.3,0c-.11,2.36-.25,4.14-.25,5.92,0,13.66,0,27.32,0,41A81.32,81.32,0,0,1,321.15,69.92Z"/><path d="M491.78,69.94H478c-.43-23-.17-45.86-.16-69.17,2.89-.19,5-.38,7.07-.45s4.3,0,6.85,0Z"/><path d="M266.74.68H279.9V69.87H266.82a37.78,37.78,0,0,1-.94-6q-.12-28.71,0-57.42A38.59,38.59,0,0,1,266.74.68Z"/></g></g></svg>