<svg width="182" height="52" xmlns="http://www.w3.org/2000/svg" viewBox="0 0 805.2 149.29"><defs><style>.cls-1{fill:#272425}.cls-2{fill:#262425}.cls-6{fill:#f9e3bc}.cls-8{fill:#ec5f3d}.cls-9{fill:#f2932c}.cls-10{fill:#ed5c39}.cls-11{fill:#d77761}.cls-12{fill:#fae8c6}.cls-13{fill:#e29c4b}.cls-14{fill:#fcf0d3}.cls-15{fill:#e2a155}.cls-16{fill:#faf1da}.cls-17{fill:#e69a44}.cls-18{fill:#f79123}.cls-19{fill:#fbede1}.cls-20{fill:#d86f54}.cls-21{fill:#fcf5de}.cls-22{fill:#fae8db}.cls-23{fill:#f4932a}</style></defs><g id="Слой_2" data-name="Слой 2"><g id="Слой_1-2" data-name="Слой 1"><path class="cls-1" d="M337.31 96.8c6.24-5.19 13.33-5.24 20.54-2.93 6.27 2 10 6.76 11.3 13.1 1.41 6.89.83 13.65-2.93 19.86a18.88 18.88 0 0 1-12 8.83 28.6 28.6 0 0 1-16.29-.51 17.77 17.77 0 0 1-11.24-10.27 42.69 42.69 0 0 1-.87-30.67C328.86 85 336 80 344.67 76.84c4.28-1.54 8.61-3 12.84-4.63 1.38-.54 1.88-.22 2.51.91 1 1.76 2.13 3.42 3.14 5.16 1.3 2.23 1.31 2.32-1 3.65a29.83 29.83 0 0 1-4.39 1.94c-4.89 1.82-9.86 3.42-14.67 5.41a14.06 14.06 0 0 0-7.58 7.46 3.82 3.82 0 0 0-1.16 4zm21.41 17.07a28.72 28.72 0 0 0-1-4.66c-1.94-4.89-6.16-7-12.22-6.05-4.26.64-7.33 3.17-9.77 6.54-1.85 2.56-.64 5.24.13 7.73 1.85 6 7.06 8.8 13.71 7.67a11 11 0 0 0 9.15-11.23z"/><path class="cls-2" d="M50.38 89.27v6.87c0 1-.39 1.51-1.42 1.48h-1.62l-7.62-.27c-.15-2.51-.49-5-.39-7.53.08-2-.72-2.9-2.56-3.32-13.15-3.04-21.88 4.43-23.77 14.92a20.65 20.65 0 0 0 2.81 15.41 16.41 16.41 0 0 0 13.09 7.58c4.95.41 9.68-.33 13.82-3.3 1.36-1 2.29-1 3.33.4 1.34 1.84 2.89 3.53 4.25 5.36s1.33 2.3-.82 3.73a33.71 33.71 0 0 1-12.89 5.4 36.53 36.53 0 0 1-15.22-.4c-10.11-2.6-16.56-8.94-19.55-18.91-3.15-10.46-2.43-20.45 3.87-29.58 7.23-10.49 17.59-14 29.87-12.48a30.67 30.67 0 0 1 12.75 4.65 3.8 3.8 0 0 1 2.1 3.94 59.68 59.68 0 0 0 0 6.05zM218.5 114.82c-.89 4.82-1.73 9.14-2.48 13.48-1 5.59-.94 5.59-6.51 5.6h-1.21c-5.07 0-5 0-4.11-4.78 2.06-10.93 4.06-21.88 6.1-32.81.23-1.24-.15-3.12 1.7-3.15s4.16-.88 5.71 1.62c4.24 6.85 8.71 13.55 13.11 20.3 1.1 1.69 2.23 3.35 3.55 5.31l6.89-10.61c3.06-4.73 6.16-9.44 9.16-14.21 1.1-1.75 2.36-2.76 4.58-2.51 2.48.28 2.83.35 3.33 2.92 1.56 8 3 16.07 4.54 24.1.74 4 1.47 7.91 2.26 11.85.27 1.34 0 2-1.54 2-2.69-.06-5.39-.09-8.07 0-1.65.06-1.95-.78-2.17-2.17-.78-4.9-1.69-9.78-2.61-14.65a6.7 6.7 0 0 0-.87-1.7 7.21 7.21 0 0 0-1.33 1.26c-3.12 5-6.15 10.08-9.3 15.07-2.07 3.28-7.48 3.15-9.57-.13q-4.76-7.47-9.56-14.93a22.1 22.1 0 0 0-1.6-1.86zM270.06 113.82c-.38-13.89 11.78-23.6 23.55-23.45A23.77 23.77 0 0 1 317 113.72a23.43 23.43 0 0 1-23.55 23.18c-13.17.21-23.98-11.09-23.39-23.08zm35.71-.18a12.12 12.12 0 1 0-12.2 12c6.43-.01 12.23-5.64 12.2-12z"/><path class="cls-1" d="M406.7 111.94c-1.12.94-2 1.56-2.7 2.27q-9.35 8.89-18.69 17.81c-.67.64-1.39 1.57-2.17 1.67a11.21 11.21 0 0 1-5.08-.25c-.55-.2-.49-2.42-.49-3.71q-.05-16.75 0-33.51c0-3.09 0-3.09 3-3.11h5.65c3.22 0 3.24 0 3.25 3.41 0 5.25 0 10.5.05 15.74a10.94 10.94 0 0 0 .45 2.15 11.72 11.72 0 0 0 1.63-1.1c6.24-5.93 12.5-11.83 18.65-17.84a7.35 7.35 0 0 1 6.11-2.47c1.65.13 2.47.57 2.37 2.37-.12 2.28 0 4.57 0 6.86v29.06c0 2.48-.05 2.52-2.36 2.56s-4.84 0-7.27 0-2.35-.07-2.37-2.54v-16.55c-.03-.76-.03-1.56-.03-2.82zM183.7 111.65c-5.19 4.9-9.78 9.21-14.34 13.55-2.44 2.31-5 4.52-7.21 7-2 2.28-4.38 1.55-6.71 1.56-.29 0-.72-.68-.86-1.11a5.55 5.55 0 0 1-.06-1.6V95.93c0-2.85 0-2.86 2.87-2.87 1.75 0 3.5.07 5.25 0 4.49-.21 3.88.58 3.85 4v15.34c0 .64.08 1.29.17 2.49 1.34-1.19 2.34-2 3.28-2.92 5.84-5.56 11.66-11.15 17.53-16.69a7.94 7.94 0 0 1 2.93-1.93c4.3-1.29 5.28-.54 5.29 3.85v33.91c0 2.64-.05 2.73-2.62 2.68-3-.05-6.09-.29-9.13-.44-.08-2.81-.19-5.61-.22-8.42-.05-4.08-.02-8.25-.02-13.28z"/><path d="M101 113.39v17.36c0 3.08-.08 3.1-3.18 3.13-2.15 0-4.31-.07-6.46 0-1.69.09-2.4-.4-2.36-2.23.1-4.71.06-9.42 0-14.13 0-1.57-.2-3.14-.3-4.72a33 33 0 0 0-4.11 2.84c-5.7 5.32-11.41 10.65-16.91 16.18-1.86 1.88-3.87 2.07-6.18 2.05-1.41 0-1.91-.72-1.93-2v-2-32.3-2c0-1.72.79-2.34 2.5-2.25a61.56 61.56 0 0 0 7.26 0c1.92-.13 2.21.76 2.2 2.37-.06 5.65 0 11.31 0 17a8.68 8.68 0 0 0 .4 1.81 7 7 0 0 0 1.65-.88c6.45-6.1 12.84-12.26 19.32-18.33a6.7 6.7 0 0 1 3.36-1.84c4.6-.6 4.69-.43 4.7 4.21v15.75z" fill="#242122"/><path d="M127.26 93.09h16.93c2.87 0 2.89 0 2.94 2.89v6c.06 1.37-.42 2-1.83 1.93q-4.63-.08-9.27 0c-2.55 0-2.6.07-2.61 2.73v24.19c0 3 0 3-3.12 3h-6.85c-2.45 0-2.51-.07-2.53-2.4v-12.9-11.29c0-3.61.25-3.34-3.17-3.35-2.82 0-5.64-.06-8.46 0-1.51 0-2.23-.42-2.12-2.06.12-1.87 0-3.76 0-5.64 0-3.15 0-3.16 3.09-3.17h16.93z" fill="#2b2829"/><path d="M467.26 127.5c.92 1.63 1.85 3.25 2.77 4.88.56 1 .19 1.53-.89 1.53h-10.45a2.3 2.3 0 0 1-2.42-1.66l-1.17-3-2.42-5.38c-1.54-2.91-3.07-5.82-4.64-8.72-.42-.78-.94-1.51-1.41-2.27a20.28 20.28 0 0 0-1.79 2.42c-1.63 3-3.16 6.07-4.74 9.11l-2.51 6.27c-.94 2.67-2.81 3.48-5.58 3.25s-5.84-.06-9.24-.06c2.12-4.07 4-7.62 5.82-11.17 4.76-9.17 9.59-18.3 14.2-27.54 1-2 2.35-2.1 4.18-2.14s2.92.29 3.81 2.1c4.39 8.89 9 17.69 13.46 26.52" fill="#282627"/><path class="cls-6" d="M337.31 96.8l-3 3.93a3.82 3.82 0 0 1 1.16-4z"/><path d="M613.42 149.22c-5.64 0-11.29-.11-16.93 0-3.6.1-5.68-1.47-5.51-5.54.16-3.76 0-7.53.07-11.29 0-1.49-.24-2.63-1.78-3.11-1.28-.39-1.48-1.32-1.48-2.49v-17.34a6 6 0 0 1 3-5.31c6.39-4.07 12.82-8.08 19.24-12.11 2.28-1.43 4.19-1.73 6.79.1 6.07 4.28 12.53 8 18.8 12 1.87 1.19 3.16 2.64 3.09 5.2-.16 5.64 0 11.29-.06 16.93 0 .88-.14 2.33-.62 2.52-2.42 1-1.92 3-2 4.79v8.47c0 6.64-2.24 7.25-7 7.16-5.24-.1-10.48 0-15.72 0zm13.87-33c-.92-2.35-2.76-3.18-4.58-2-.21.14-.12.75-.17 1.14l-.83.79a2.39 2.39 0 0 1-.64.09c-.47.51-.93 1-1.42 1.54-.92.94-1.77 1.32-2-.48-.12-1.09-.83-1.13-1.62-1.14a1.47 1.47 0 0 1-.11-.58c-1.6-2.23-3.91-2.73-5.24-.51s-2.73 2-4.55 1.23l-1.43-.89-.71-1.52-.9 1.36-3.11 1c-2.33 1.85-2.43 3.66-.25 4.78v1.62c-.79.07-1.71.1-1.32 1.28.76 2.26 3.08 2.68 6.29 1.19 2.09-.74 1.47-2.55 1.61-4.06l2-1.49a18.69 18.69 0 0 1 1.22 2.3 5.4 5.4 0 0 1 0 1.59c.11 2.91 1.27 3.91 4 3.19a9.11 9.11 0 0 0 2.45-1.65l.82-2.33c.12 0 .28-.06.37-.14.89-.9.29-3.55 2.36-2.77 1.21.46.36 2.23-.16 3.49s.18 2 1.64 1.76a3.11 3.11 0 0 1 .66 0c1.13 1.7 2.82.72 4.22.78 2.56.11 2.75-.46 1.43-3.18v-2.42c1.23-1.61 1.22-2.6-.03-3.98zm-21.75 22.52l.82-2.38c.4-.06 1 0 1.15-.21.89-1.48.36-4.92-.88-6.34s-4.89-2.09-6.35-1.31c-.44.24-1 .71-1.07 1.14-.38 2.48-.68 5-.85 7.47 0 .25 1 .58 1.5.87l.84.81c-.14 2 1.3 1.59 2.44 1.61s2.58.3 2.4-1.66zm15.42-4c0 4.38.08 4.46 4 4.09 1.44-.14 2.24-.76 2.28-2.18a37.41 37.41 0 0 0 0-4.78 3.19 3.19 0 0 0-3-2.7 3.28 3.28 0 0 0-3.29 2.8 20.72 20.72 0 0 0 .05 2.73zm-7.3-35.52c-2.73 0-4 1.14-4.09 3.76-.08 2.77 1.13 4.23 3.57 4.28a4.52 4.52 0 0 0 4.5-4.16c.13-2.51-1.29-3.89-3.98-3.92zm-19.25 23.48a4 4 0 0 0-1.15 0 2.34 2.34 0 0 0-1.47 2.58c.11 1.29-.4 2.8 1.16 3.55a1.32 1.32 0 0 0 1.19-.49 36.94 36.94 0 0 0 .83-4.64c.03-.38-.42-.8-.56-1.04z" fill="#f1952f"/><path class="cls-8" d="M581.22 74.34v20.19c0 3.86-1.48 5.34-5.32 5.35h-38.76c-4.27 0-5.83-1.57-5.85-5.82V53.29c0-1.83.48-2.75 2.4-3.51 6.81-2.7 13.51-5.68 20.18-8.72a5.49 5.49 0 0 1 4.93 0c6.47 2.81 13 5.51 19.51 8.21 2 .84 3.14 1.94 3.06 4.49-.23 6.86-.08 13.72-.08 20.59zM553 78.17c1.84 1.45 3.73 1.12 5.64.17l1.65-1c1.06-1.25 2.12-2.35 1.14-4.3-.53-1.05-.27-2.5-.37-3.77h1.66c-.14 1.19.39 1.72 1.58 1.6l-.07 1.6c-1.12-.05-1.81.47-1.45 1.57a12.57 12.57 0 0 0 1.46 2.48l.19 1.42c.19.58.37 1.67.56 1.67 2.24 0 4.48-.12 6.71-.35 1.34-.14 3.05-1 2.76-2.16-.5-2 .44-4.42-1.3-6.14-.14-.14-.52 0-.78-.07l-1.56-.89c-.47-.45 1.09-3-1.5-1.37-.9.57-2.24.44-3.37.63v-2.4l1.61-.71h1.62c.88 1.13 1.7 1.25 2.43-.15l.85-1.59a10.34 10.34 0 0 1 .88-2.67c1.16-1.74.23-2.74-1-3.73 0-.81.1-1.63-1.06-1.68-2.2-.1-4.35 0-6.14 1.56l-.81.85-2.16 2.67-2-3.41c-2.08 0-4.17 0-6.25-.1-1.18 0-1.62.59-1.7 1.64h-2.39L548 58a1.72 1.72 0 0 1-.64-.12c-.17-.46-.3-1.3-.51-1.32a31.48 31.48 0 0 0-4.61 0c-.22 0-.38.84-.57 1.28a1.6 1.6 0 0 0-1.63 1.74c-.51.28-1.25.43-1.48.86s.9 3.58 1.57 4.81a1 1 0 0 1 .07.53c.93 1.85.91 2.26-.08 4.4a2 2 0 0 0 0 .76 6.35 6.35 0 0 0 0 6.45 1 1 0 0 1 .09.55c.21.46.4 1.29.64 1.31 2.33.16 4.66.19 7 .18a8.49 8.49 0 0 0 .22-1.45 1.31 1.31 0 0 1 .13-.58c1.2.12 1.71-.45 1.61-1.62l1.59-.81c.23.82-.56 2 .86 2.42zm-.74 12c0 .4 0 1.11.1 1.14a23.63 23.63 0 0 0 5.17 1 1.81 1.81 0 0 0 1.94-2 1.34 1.34 0 0 1 .64-.15c.24-.09.68-.17.69-.27.08-2.39.13-4.77.12-7.16 0-.16-.62-.31-.94-.46l-1.32-.16c-.07-.38-.07-1.07-.21-1.09a10.2 10.2 0 0 0-3.56-.4 8.62 8.62 0 0 0-3.83 1.68c-.4.33.25 1.83.3 2.81.07 1.33-.05 2.67.05 4 0 .38.56.71.86 1.07z"/><path class="cls-9" d="M762.26 49.06a4.77 4.77 0 0 1 .23-.75c2.39-.18 1.05-2.11 1.5-3.2l4.07-.19c.56 1 .5 2.55 2.21 2.57l.23-.11c-.22 1.15.2 1.73 1.43 1.73 4 0 7.91-.07 11.87 0 2 0 2.13-1 1.87-2.53l.23-1.38c1.74-.54 2.94-1.41 1.83-3.43-.75-1.36.25-2 1-2.59.41-.3 1.53-.41 1.66-.19.43.7 1 1.84.72 2.36-1.35 2.4.31 3.35 1.82 4.46l.19.8.7 3.2.7 2.45.83 1.7a1.25 1.25 0 0 0 .18.67c.21 3.27 3.09 4 5.25 4.51 2.41.55 3 1.48 2.73 3.61-3.19 1.09-3.22 1.09-3.22 3.89v27c0 3.94-1.6 5.49-5.6 5.5h-33c-4.74 0-5.9-1.14-5.92-5.84V67.52c0-2 .49-4.1-2.3-4.84-.43-.11-.74-1.24-.84-1.93-.15-1.09.76-1.11 1.56-1.34 1.38-.4 2.71-1 4.06-1.54 1.27.14 1.81-.41 1.61-1.67l.88-1.52c2.76-1 3-1.72 1.72-4.88zm27.51 30.71c1.15.1 1.67-.34 1.65-1.58-.05-3.71 0-7.43 0-11.14 0-1.31-.29-2.35-1.84-2.5a2.11 2.11 0 0 1-.59-.09 6.15 6.15 0 0 0-2-.8c-3.39-.11-3.65.19-3.71 3.56 0 1.47 0 2.94-.07 4.41a.74.74 0 0 1-1.47 0c-.08-1.87-.11-3.74-.06-5.61 0-1.27-.54-1.68-1.7-1.51-1.82-2.06-3-2.39-4.38-.77a10.83 10.83 0 0 0-2 4.16 15.18 15.18 0 0 0-.07 4c0 1.77-1.21 1.37-2.23 1.38l-.24-7.94-.81-.86c-3.66-2-6.35-.64-6.42 3.2-.06 3.22.09 6.44-.06 9.65-.08 1.69.46 3.26 1.84 3.63 1.65.44 3.54 0 5.31-.12a6.09 6.09 0 0 0 .12-1.14 2.33 2.33 0 0 1 .14-.7c.37-.06 1 0 1.07-.21.6-1.22 1.06-1.42 1.69 0 .09.2.69.16 1.06.23a1.84 1.84 0 0 1 .16.71c-.27 1.93 1.14 1.51 2.26 1.74 2.94.59 2.93.65 3.36-2.46l.05-.81c2-.55 1.24-2.58 1.93-3.92 1.18 1.48-.6 3.56 1.27 4.71-.17 1.28.48 2.3 1.61 2.35 1.31.05 2.91.81 3.95-.75.24-.23.17-.59.18-.82zm-13.7-19.85a9 9 0 0 0-.15-1.36c0-.18-.41-.43-.55-.39-.32.09-.81.33-.83.55a16.58 16.58 0 0 0 0 2.71.69.69 0 0 0 .55.39 1.41 1.41 0 0 0 .85-.56 4.05 4.05 0 0 0 .13-1.34z"/><path class="cls-10" d="M745.24 117v4.81c-1.67-.07-1.51 1.1-1.51 2.19 0 6.33.06 12.66 0 19 0 3.65-1.18 4.69-4.81 4.71h-27.07c-2.84 0-5.66.37-8.54.07-3.28-.34-4.09-.7-4-3.94.13-3.52-.4-7-.17-10.56.4-6 .17-12.11.08-18.17a7.88 7.88 0 0 0-2-5.44c-1.44-1.56-.71-3.5 1.39-4a8.21 8.21 0 0 1 2 0c5.59.22 9.16-2.63 11.63-7.41a14.18 14.18 0 0 1 3.36-4.39c1.46-1.21 3.46-2.69 5.09-2.54 2.32.22 5.14.4 6.83 2.64s3.25 4.49 4.83 6.77c2.12 3.08 4.4 5.75 8.75 5a9.57 9.57 0 0 1 3.62 0 3.09 3.09 0 0 1 2.06 1.48 2.64 2.64 0 0 1-.62 2.39c-2.75 2.18-1.87 4.74-.92 7.39zm-34.63 19.52c0 .8.06 1.6 0 2.39-.15 1.68.47 2.48 2.24 2.3 1.05-.11 2.15.07 3.18-.11.56-.1 1.44-.63 1.48-1 .29-2.73.91-5.52-.39-8.17a3.64 3.64 0 0 0-4-1.78 3.28 3.28 0 0 0-2.49 3.21c0 1-.01 2.06-.01 3.13zm21 .21v-2.82c-.1-2.15-1.56-3.81-3.29-3.78a4.3 4.3 0 0 0-3.81 3.54 28.93 28.93 0 0 0 .07 5.64 2.71 2.71 0 0 0 1.69 1.8c4.27.97 5.33.05 5.33-4.42zm-6.52-36.14c.07-2.49-1.3-3.81-4-3.83-2.4 0-3.84 1.22-4 3.42a4.35 4.35 0 0 0 4 4.55 4.47 4.47 0 0 0 4-4.18zm-15.3 18.31v1.2c-.25 5.64.61 4.95 5.51 5a2.67 2.67 0 0 0 .4 0 3.29 3.29 0 0 0 2.95-3.16 55.66 55.66 0 0 0 0-6.81 3.88 3.88 0 0 0-5.08-3.17c-3.45 1.12-3.73 1.48-3.76 5-.03.56-.02 1.23-.02 1.89zm21.84.14a26.9 26.9 0 0 1 0-3.2c.19-1.58-.88-2.14-2-2.57-2.49-1-4.63.08-5.07 2.76a27.6 27.6 0 0 0-.05 6.38 2.42 2.42 0 0 0 1.39 1.59c3.81 1.26 5.7-.19 5.73-4.25V119z"/><path class="cls-11" d="M745.24 117c-.95-2.62-1.83-5.17 1-7.39a2.64 2.64 0 0 0 .62-2.39 3.09 3.09 0 0 0-2.06-1.48 9.57 9.57 0 0 0-3.62 0c-4.35.79-6.63-1.88-8.75-5-1.57-2.28-3.15-4.57-4.83-6.77s-4.51-2.42-6.83-2.64c-1.62-.15-3.63 1.33-5.09 2.54a14.18 14.18 0 0 0-3.36 4.39c-2.47 4.78-6 7.63-11.63 7.41a8.21 8.21 0 0 0-2 0c-2.1.45-2.82 2.4-1.39 4a7.88 7.88 0 0 1 2 5.44c.09 6.06.32 12.14-.08 18.17-.24 3.56.29 7 .17 10.56-.12 3.23.7 3.59 4 3.94 2.88.3 5.69-.08 8.54-.07h26.96c3.62 0 4.76-1.06 4.81-4.71.07-6.33 0-12.66 0-19 0-1.1-.17-2.26 1.51-2.19 0 7.79.13 15.59.09 23.38 0 3-1.13 4-4.22 4.07q-19.36.1-38.72 0c-3.64 0-4.73-1.26-4.74-4.9q-.05-14.72 0-29.44c0-1.52 0-2.66-2-3.22-1.54-.43-1.75-3-1.38-5.22s1.74-2.42 3.47-2.38a17.33 17.33 0 0 1 2 0c5 .72 7.92-2.08 10.14-6 .26-.46.55-.92.77-1.4 2.31-5.1 8.35-8.65 15.45-6.1a10.68 10.68 0 0 1 5.5 5 53.94 53.94 0 0 0 3.81 5.59 7.13 7.13 0 0 0 6.67 2.94 21.64 21.64 0 0 1 4.43 0c1.8.21 2.49 1.39 2.22 3.34s0 3.83-2.39 5c-.81.53-.71 2.96-1.07 4.53z"/><path class="cls-12" d="M758.23 58c-1.35.52-2.67 1.13-4.06 1.54-.8.23-1.71.25-1.56 1.34.1.69.41 1.82.84 1.93 2.79.73 2.3 2.87 2.3 4.84v25.78c0 4.7 1.17 5.84 5.92 5.84h33c4 0 5.59-1.56 5.6-5.5v-27c0-2.8 0-2.8 3.22-3.89-.31.7-.61 1.41-.92 2.1-.22.47-.75 1-.65 1.38 1.15 4.19-.49 8.33-.14 12.53s.08 8.59.08 12.89v2.82c0 4.42-1.34 6-5.79 6.2-7.32.37-14.68 1-22 .67-5.18-.26-10.35-.57-15.54-.66-2.3 0-5.17-3-5.11-5.68.19-8.15-.52-16.3.36-24.46.23-2.14.21-5-2.14-6.81-.94-.73-2.23-2.64-2-3 1.14-1.53 2.16-3.57 4.46-3.64 1.76-.05 2.91-.25 3.43-2.41.43-1.8 1.8-3.41 2.91-5 .3-.44 1.15-.5 1.75-.73l.18.82-1.72 4.88-.88 1.52z"/><path class="cls-13" d="M663.75 7.89l.81-1.63 3.2-5.66h.82l.82.85a6.59 6.59 0 0 0 .35 1.5c1.74 3.51 3.48 7 5.31 10.49.25.47 1 .7 1.47 1 .12 1.74.36 3.42 2.31 4.15l.26 1.41 1.51 2.54.91 2.31a10.48 10.48 0 0 0 .77 2.21 17.69 17.69 0 0 1 2.53 11.07c-.19 2.54 0 5.1 0 7.66 0 9.54.05 19.08 0 28.62 0 1.85.65 2.42 2.35 2.09-.6 1-.51 2.67-2.36 2.5l-.81-1.62V49.93c0-2.13 0-2.11-2.2-1.79-.35 0-.73-.24-1.11-.29-1-.15-2.1-.25-3.14-.37v-1.46c.8 0 1.6-.05 2.39-.1 2.31-.15 2.38-.15 2.38-2.55 0-3.7.38-7.44-.93-11 1.4-.76 1.68-1.62.23-2.62l-.82-1.62c-.52-1.19-1-2.4-1.57-3.55s-1.39-2.47-2.06-3.71Q674 15.15 671 9.48c.11-1.18-.4-1.74-1.6-1.62V6.28c0-.82 0-1.73-1.15-1.59a1.9 1.9 0 0 0-1.3 1.06 32.2 32.2 0 0 0-.8 3.72l-.8 1.61c-.54.28-1.38.43-1.56.86-.67 1.55-1.13 3.2-1.67 4.81-.27.53-.4 1.25-.82 1.56-1.19.85-2.49 1.53-2.4 3.29.39 2.07-.36 3.46-2.43 4.06a4.17 4.17 0 0 0-.78 0l-.08-.07 3.74-8.16z"/><path class="cls-6" d="M690.47 74.06c.85.1 1.54.28 1.53 1.4v21.36c0 2-2.19 3.89-4.25 4-9.47.3-18.95.64-28.42.76a100.1 100.1 0 0 1-10.29-.76 4.71 4.71 0 0 1-3.82-4c-.06-7.12 0-14.24 0-21.36 0-1.12.71-1.29 1.55-1.36l.15.16c0 6.84-.1 13.68-.1 20.52 0 3.53.94 4.46 4.56 4.47q17.3.05 34.61 0c3.54 0 4.47-1 4.49-4.56V74.22z"/><path class="cls-6" d="M687.1 76.49c-1.7.33-2.36-.24-2.35-2.09.08-9.54 0-19.08 0-28.62 0-2.55-.15-5.12 0-7.66A17.69 17.69 0 0 0 682.29 27a10.48 10.48 0 0 1-.77-2.21c2.6.4 3.66 1.2 4 3.5a73.53 73.53 0 0 1 .81 9.09c.1 10.63 0 21.26 0 31.89v2.42c0 1.55.85 2 2 1.37s2-.68 2.1 1l-.14.14c-1.42.28-3.11.18-3.22 2.3z"/><path class="cls-13" d="M651.54 45l.08-12.89 4-6.5.08.07c-.3 1.41-.19 3.14-1 4.16-1.42 1.83.55 2.11.95 3.08l-.07 1.5a4.38 4.38 0 0 1-.78.11c-2-.11-1.58 1.34-1.58 2.47v36.1a23.88 23.88 0 0 1-.85 5c-.06.28-.71.44-1.09.65l-.38-1.45c1.46-1.42.57-3.2.71-4.81v-1.57Q651.55 58 651.54 45z"/><path class="cls-6" d="M655.61 25.62l-4 6.5c-1.26-.53-1-1.49-.47-2.27 1.82-2.65 3-5.68 4.76-8.34a12.4 12.4 0 0 0 .64-1.79c1.57-3.42 3.18-6.82 4.75-10.24a2.24 2.24 0 0 1 2.45-1.59l-4.4 9.57z"/><path class="cls-14" d="M793 45.88c-1.51-1.11-3.16-2.06-1.82-4.46.29-.52-.29-1.66-.72-2.36-.13-.22-1.25-.12-1.66.19-.79.59-1.8 1.23-1 2.59 1.11 2-.09 2.89-1.83 3.43-.21-2.65-.49-5.27 1.17-7.68 1.1-1.59 2.25-1.89 3.82-.74 2 1.44 2.58 3.58 2.92 5.81a21.06 21.06 0 0 1 0 3.2z"/><path class="cls-6" d="M651.54 45v25.92c-.86 0-1.56-.2-1.56-1.32V46.35c.02-1.11.7-1.3 1.56-1.35z"/><path class="cls-15" d="M768.07 44.92l-4.07.19-.16-.16v-.37c1-.77 1.34-1.81.46-2.73-1.55-1.61-.19-2.39.86-3 .73-.39 1.8-.15 2.72-.19l.87 3.11c-1.58.77-.49 2.1-.68 3.15z"/><path class="cls-6" d="M676.54 14.43c-.5-.34-1.22-.57-1.47-1-1.83-3.47-3.58-7-5.31-10.49a6.59 6.59 0 0 1-.35-1.5c.6.22 1.48.26 1.75.69.8 1.28 1 3.21 2.08 3.94 1.5 1 1.66 2.08 1.86 3.6a29 29 0 0 0 1.44 4.76z"/><path class="cls-12" d="M803.55 62.82c.31-2.14-.32-3.06-2.73-3.61-2.16-.49-5-1.25-5.25-4.51h1.5c1.19 3 4.2 2.37 6.46 3.23 2.22 2.13 2.22 2.77.02 4.89z"/><path class="cls-14" d="M767.9 38.7c-.92 0-2-.2-2.72.19-1.05.56-2.42 1.34-.86 3 .88.92.58 2-.46 2.73l-.41.39-1.16 1.65c-.18-1.41-.33-2.83-.54-4.24a4.86 4.86 0 0 1 5.12-5.42c1.13.07 1.07.89 1.03 1.7zM785.65 46.63c.26 1.49.13 2.57-1.87 2.53-4-.09-7.91 0-11.87 0-1.24 0-1.65-.57-1.43-1.73 5.14 1.21 10.24 1.79 15.17-.8z"/><path class="cls-6" d="M651.56 72.49c-.14 1.62.75 3.39-.71 4.81-1-1.5-1.94-3-4-3.08l-.15-.16zM667.76.6l-3.2 5.66c-1.8-.8-.08-1.66 0-2.48a3.11 3.11 0 0 1 3.2-3.18zM678.87 18.6c-1.95-.73-2.18-2.41-2.31-4.15 1.81-.39 2.83.11 2.51 2.19-.07.65-.14 1.3-.2 1.96z"/><path class="cls-14" d="M768.07 44.92c.18-1-.91-2.38.7-3.11 2.84.15 1.19 2.21 1.46 3.45L768 45z"/><path class="cls-15" d="M768 45l2.19.29v2.28C768.54 47.51 768.6 46 768 45zM762.3 46.62l1.15-1.62h.39l.16.16c-.45 1.09.89 3-1.5 3.2z"/><path class="cls-14" d="M794.55 52.33l-.7-2.45c2-.16 1.53 1.31 1.58 2.44z"/><path class="cls-6" d="M680.61 22.52L679.1 20c2.07-.11 1.57 1.33 1.51 2.52z"/><path class="cls-12" d="M794.55 52.33h.88l-.05 1.67z"/><path class="cls-6" d="M668.59.54h-.82l.51-.58z"/><path class="cls-12" d="M793 45.88h.85l-.67.82z"/><path class="cls-14" d="M621 134.7a20.72 20.72 0 0 1 0-2.79 3.28 3.28 0 0 1 3.29-2.8 3.19 3.19 0 0 1 3 2.7 37.41 37.41 0 0 1 0 4.78c0 1.43-.85 2-2.28 2.18-4.01.4-4.09.32-4.01-4.07zM600.7 138.78l-.84-.81c0-1.73 0-3.46.05-5.18.07-2.09 1.31-3.62 2.85-3.62a4.06 4.06 0 0 1 3.49 3.21 35.55 35.55 0 0 1 .11 4l-.82 2.38z"/><path class="cls-12" d="M616.84 122.62l-.82 2.33c-.93 0-1.87.09-2.8 0-2.33-.12-2.61-.43-2.74-2.89v-1.6c0-4.39 1-5.26 5.49-4.93a1.47 1.47 0 0 0 .11.58z"/><path class="cls-16" d="M613.66 99.18c2.69 0 4.1 1.41 4 3.88a4.52 4.52 0 0 1-4.5 4.16c-2.43-.05-3.65-1.51-3.57-4.28.07-2.62 1.34-3.79 4.07-3.76z"/><path class="cls-6" d="M627.37 120.19v2.42c-.46 2.2-1 2.54-2.45 1.73.28-1.52.64-3 .82-4.57.1-.87.25-2-1.2-2a1.82 1.82 0 0 0-2 2 41.38 41.38 0 0 0 .8 4.57l-1.65.67a3.11 3.11 0 0 0-.66 0v-8.73a2.39 2.39 0 0 0 .64-.09l.83-.79 4.75.86z"/><path class="cls-17" d="M615.95 115.57c-4.49-.33-5.46.54-5.49 4.93v1.6c.13 2.46.41 2.77 2.74 2.89h2.8a9.11 9.11 0 0 1-2.45 1.65c-2.71.72-3.87-.28-4-3.19a5.4 5.4 0 0 0 0-1.59 18.69 18.69 0 0 0-1.22-2.3l-2 1.49-.2-4.72c1.82.74 3.15 1.1 4.55-1.23s3.66-1.77 5.27.47z"/><path class="cls-6" d="M606.15 116.28l.2 4.72c-.15 1.51.48 3.32-1.61 4.06a17.36 17.36 0 0 0-2.79 0c-2 .27-2.11-1-2.18-2.41v-1.62h.33c1-.06 1.4.34 1.46 1.36.09 1.43 1.25 1 2.1 1 1.14 0 1.09-.9 1.1-1.69s0-1.58 0-2.37c0-1.2-.49-2.21-1.66-2.26-.74 0-1.56.65-2.26 1.14a4.24 4.24 0 0 0-.83 1.2v-3.21l3.11-1 1.61.16z"/><path class="cls-17" d="M606.36 136.36a35.55 35.55 0 0 0-.11-4 4.06 4.06 0 0 0-3.49-3.21c-1.54 0-2.77 1.54-2.85 3.62-.06 1.73 0 3.46-.05 5.18-.52-.29-1.52-.62-1.5-.87.17-2.5.47-5 .85-7.47.07-.43.62-.9 1.07-1.14 1.46-.79 5.23 0 6.35 1.31s1.77 4.86.88 6.34c-.13.25-.75.17-1.15.24zM621.07 116.23v8.73c-1.46.25-2.16-.5-1.64-1.76s1.37-3 .16-3.49c-2.07-.78-1.47 1.86-2.36 2.77-.08.09-.24.1-.37.14l-.78-6.47c.8 0 1.5 0 1.62 1.14.2 1.8 1.06 1.42 2 .48.44-.5.9-1.03 1.37-1.54z"/><path class="cls-18" d="M594.41 122.66c.14.23.61.66.56 1a36.94 36.94 0 0 1-.83 4.64 1.32 1.32 0 0 1-1.19.49c-1.56-.75-1.05-2.26-1.16-3.55a2.34 2.34 0 0 1 1.47-2.58 4 4 0 0 1 1.15 0z"/><path class="cls-17" d="M624.91 124.34c1.49.82 2 .47 2.45-1.73 1.32 2.72 1.13 3.28-1.43 3.18-1.4-.06-3.1.92-4.22-.78l1.65-.67zM627.28 116.23l-4.75-.86c0-.39 0-1 .17-1.14 1.83-1.23 3.67-.36 4.58 2zM600.7 138.78h4.84c.17 2-1.22 1.67-2.4 1.65s-2.58.33-2.44-1.65zM599.78 122.6c.07 1.39.18 2.69 2.18 2.41a17.36 17.36 0 0 1 2.79 0c-3.2 1.49-5.53 1.08-6.29-1.19-.4-1.12.54-1.15 1.32-1.22zM600 116.2v3.21l.07 1.6h-.33c-2.17-1.16-2.07-3.01.26-4.81zM627.37 120.19l-.08-4c1.25 1.4 1.26 2.39.08 4zM604.72 115.39l-1.61-.16.9-1.36zM622.54 115.35l-.83.79z"/><path class="cls-19" d="M572.47 64.43l-.85 1.57-2.43.15h-1.62l-3.12-.35a1.21 1.21 0 0 0-.11-.56v-6.47l.81-.85 7.2.12zM540.21 65.78a1 1 0 0 0-.07-.53l-.09-5.67a1.6 1.6 0 0 1 1.63-1.74l5.69.07a1.72 1.72 0 0 0 .63.09l-.06 7.9a1.35 1.35 0 0 0-.58.1zM552.17 59.58c.08-1.05.51-1.68 1.7-1.64 2.08.07 4.17.07 6.25.1l-.06 7.88a1 1 0 0 0-.58.16l-1.6.09L553 66c-1.33-2-.45-4.28-.83-6.42zM558.68 82.19l1.32.16.14 7.89a1.34 1.34 0 0 0-.64.15l-7.21-.18v-5.58c0-1.67.8-2.41 2.44-2.4 1.27.04 2.62-.02 3.95-.04zM540.21 77.91a1 1 0 0 0-.09-.55v-6.45c1.9-1.37 4.06-.77 6.13-.79 1.25 0 1.88.82 1.89 2.06v5.15a1.31 1.31 0 0 0-.13.58zM570.82 70l1.55.92v4.79c0 1.6-.7 2.51-2.37 2.47-1.86 0-3.71-.14-5.57-.21l-.19-1.42V72.5l.07-1.6c2.02-1.41 4.36-.48 6.51-.9zM560.32 77.37l-1.65 1-5.67-.2-.8-.83v-6.43l.77-.78h4.82c1.61 0 2.43.79 2.41 2.45s.11 3.18.12 4.79z"/><path class="cls-10" d="M553.05 70.14l-.77.78c-1.79 1-.45 2.71-.9 4l-1.59.81v-3.62c-.1-2.33-.5-2.62-2.84-2.88-1.21-.14-2.71.84-3.61-.76v-.82c.74-.27 1.49-.51 2.22-.8s1.22-.54 1.82-.82a1.35 1.35 0 0 1 .58-.1L553 66a6.67 6.67 0 0 1 .05 4.14z"/><path class="cls-20" d="M543.33 68.48c.91 1.61 2.4.62 3.61.76 2.34.27 2.74.55 2.84 2.88.05 1.2 0 2.41 0 3.62s-.4 1.74-1.61 1.62v-5.15c0-1.24-.65-2.08-1.89-2.06-2.06 0-4.23-.58-6.13.79a2 2 0 0 1 0-.76c1-2.15 1-2.56.08-4.4l7.15.26c-.61.27-1.21.57-1.82.82s-1.48.54-2.22.8l-.55.54zM553.05 70.14A6.67 6.67 0 0 0 553 66l4.86.14c.27 1.17-1 3.12 1.6 3.1h1.59c.1 1.27-.15 2.71.37 3.77 1 2-.08 3.06-1.14 4.3 0-1.61-.05-3.21 0-4.82s-.74-2.48-2.41-2.45-3.21.09-4.82.1zM564.44 78c1.86.07 3.71.16 5.57.21 1.67 0 2.4-.84 2.37-2.47s0-3.19 0-4.79c.27 0 .64-.08.78.07 1.75 1.73.8 4.1 1.3 6.14.3 1.2-1.42 2-2.76 2.16-2.23.23-4.47.33-6.71.35-.17-.04-.36-1.12-.55-1.67zM553 66l-5-.07V58l1.77 1.56a3.62 3.62 0 0 0 0 1.18 5.26 5.26 0 0 0 .78 1.11 5.25 5.25 0 0 0 .77-1.12 3.6 3.6 0 0 0 0-1.18h.77c.46 2.17-.42 4.45.91 6.45zM560.07 65.92l.06-7.88 2 3.41 2.16-2.67v6.47z"/><path class="cls-10" d="M560.07 65.92l4.27-.67a1.21 1.21 0 0 1 .11.56c-.1 1.2.79 1 1.51 1.06v2.39h-6.46v-3.2a1 1 0 0 1 .57-.14z"/><path class="cls-20" d="M558.68 82.19c-1.33 0-2.66.08-4 .07-1.64 0-2.47.73-2.44 2.4v5.58c-.3-.35-.83-.69-.86-1.07-.11-1.32 0-2.66-.05-4 0-1-.7-2.48-.3-2.81a8.62 8.62 0 0 1 3.83-1.68 10.2 10.2 0 0 1 3.56.4c.19.04.2.73.26 1.11zM552.29 90.21l7.21.18a1.81 1.81 0 0 1-1.94 2 23.63 23.63 0 0 1-5.17-1c-.13-.08-.07-.79-.1-1.18zM540.21 77.91h7.86a8.49 8.49 0 0 1-.22 1.45c-2.33 0-4.67 0-7-.18-.24.02-.43-.81-.64-1.27zM562.74 69.3h3.21c1.14-.19 2.47-.06 3.37-.63 2.59-1.63 1 .92 1.5 1.37-2.15.43-4.49-.5-6.5.91-1.18.05-1.72-.46-1.58-1.65zM572.35 58.06l-7.2-.12c1.79-1.52 3.93-1.66 6.14-1.56 1.16.05 1.1.87 1.06 1.68zM547.38 57.91l-5.69-.07c.19-.45.35-1.27.57-1.28a31.48 31.48 0 0 1 4.61 0c.2.05.34.89.51 1.35zM540.06 59.58l.09 5.67c-.67-1.23-1.85-4.29-1.57-4.81s.97-.58 1.48-.86z"/><path class="cls-20" d="M572.47 64.43l-.14-6.43c1.25 1 2.18 2 1 3.73a10.34 10.34 0 0 0-.86 2.7zM560.14 90.23l-.14-7.89c.33.15.94.3.94.46 0 2.39 0 4.77-.12 7.16.01.1-.44.18-.68.27zM564.25 72.5v4.05a12.57 12.57 0 0 1-1.46-2.48c-.35-1.07.34-1.63 1.46-1.57zM540.14 70.92v6.45a6.35 6.35 0 0 1 0-6.45zM551.39 74.94c.45-1.3-.89-3 .9-4v6.43c-1.46-.42-.67-1.61-.9-2.43zM553 78.17l5.64.17c-1.88.94-3.78 1.27-5.64-.17z"/><path class="cls-10" d="M551.4 59.59a3.6 3.6 0 0 1 0 1.18 5.25 5.25 0 0 1-.77 1.12 5.26 5.26 0 0 1-.78-1.11 3.62 3.62 0 0 1 0-1.18z"/><path class="cls-20" d="M566 66.86c-.71-.05-1.6.14-1.51-1.06l3.12.35zM569.19 66.17l2.43-.15c-.73 1.39-1.55 1.28-2.43.15zM552.23 77.34l.8.83z"/><path class="cls-21" d="M789 64.46a2.11 2.11 0 0 0 .59.09c1.06 5.06 1.6 10.13.2 15.23-1.89-.17-3.9.49-5.63-.81v-9.6c.05-4.23.54-4.73 4.84-4.91zM771.3 79a2.33 2.33 0 0 0-.14.7c-1.19 0-2.39 0-3.58.07-1.6.15-2.08-.58-2-2.08.07-2.79 0-5.57 0-8.36 0-4.17.58-4.72 4.81-4.85l.81.86.24 7.94zM781 78.18l-.05.81c-1.75 1.22-3.72.68-5.62.73a1.84 1.84 0 0 0-.16-.71c0-3.34 0-6.68.09-10 .05-3.75.78-4.41 4.83-4.48.28 1.92.7 3.83.82 5.76.09 2.6.02 5.25.09 7.89z"/><path class="cls-15" d="M780 64.5c-4.05.06-4.78.73-4.83 4.48 0 3.34-.06 6.68-.09 10-.37-.07-1 0-1.06-.23-.63-1.41-1.09-1.21-1.69 0-.1.2-.7.15-1.07.21l.11-5.73c1 0 2.27.39 2.23-1.38a15.18 15.18 0 0 1 .07-4 10.83 10.83 0 0 1 2-4.16c1.33-1.58 2.54-1.24 4.33.81zM770.36 64.49c-4.23.13-4.79.68-4.81 4.85 0 2.79.05 5.58 0 8.36 0 1.49.44 2.22 2 2.08 1.19-.11 2.39 0 3.58-.07a6.09 6.09 0 0 1-.12 1.14c-1.78.12-3.67.56-5.31.12-1.38-.37-1.92-1.94-1.84-3.63.15-3.21 0-6.43.06-9.65.08-3.85 2.79-5.17 6.44-3.2zM781 78.18c0-2.64 0-5.29-.12-7.92-.12-1.93-.53-3.84-.82-5.76 1.16-.16 1.74.24 1.7 1.51-.05 1.87 0 3.74.06 5.61a.74.74 0 0 0 1.47 0c.08-1.47 0-2.94.07-4.41.06-3.37.32-3.66 3.71-3.56a6.15 6.15 0 0 1 2 .8c-4.28.18-4.77.68-4.79 4.91v9.6c-1.87-1.14-.09-3.22-1.27-4.71-.81 1.35-.01 3.39-2.01 3.93zM789.77 79.77c1.4-5.09.87-10.16-.2-15.23 1.55.15 1.84 1.19 1.84 2.5v11.14c.03 1.25-.49 1.69-1.64 1.59zM775.28 79.72c1.9 0 3.87.49 5.62-.73-.43 3.11-.42 3.05-3.36 2.46-1.12-.22-2.54.2-2.26-1.73zM784.15 79c1.73 1.3 3.74.65 5.63.81 0 .27.06.59-.07.79-1 1.56-2.64.8-3.95.75-1.14-.09-1.76-1.11-1.61-2.35zM760.73 54.75l1.72-4.88c1.28 3.13 1.04 3.86-1.72 4.88z"/><path class="cls-18" d="M776.07 59.92a4.05 4.05 0 0 1-.1 1.34 1.41 1.41 0 0 1-.85.56.69.69 0 0 1-.55-.39 16.58 16.58 0 0 1 0-2.71c0-.21.52-.45.83-.55.14 0 .51.22.55.39a9 9 0 0 1 .12 1.36z"/><path class="cls-15" d="M758.23 58l1.61-1.67c.16 1.21-.34 1.77-1.61 1.67zM771.16 65.33l-.81-.86z"/><path class="cls-22" d="M710.62 136.49v-3.19a3.28 3.28 0 0 1 2.49-3.21 3.64 3.64 0 0 1 4 1.78c1.3 2.64.68 5.44.39 8.17 0 .41-.92.95-1.48 1-1 .18-2.13 0-3.18.11-1.78.18-2.39-.62-2.24-2.3.07-.79 0-1.6 0-2.39z"/><path class="cls-19" d="M731.6 136.69c0 4.46-1.06 5.39-5.36 4.37a2.71 2.71 0 0 1-1.69-1.8 28.93 28.93 0 0 1-.07-5.64 4.3 4.3 0 0 1 3.81-3.54c1.73 0 3.2 1.63 3.29 3.78.06.95.02 1.89.02 2.83z"/><path class="cls-22" d="M725.09 100.55a4.47 4.47 0 0 1-4 4.14 4.35 4.35 0 0 1-4-4.55c.14-2.2 1.58-3.44 4-3.42 2.69.02 4.07 1.34 4 3.83z"/><path class="cls-11" d="M709.79 118.85v-2c0-3.48.31-3.84 3.76-5a3.88 3.88 0 0 1 5.08 3.17 55.66 55.66 0 0 1 0 6.81 3.29 3.29 0 0 1-2.93 3.17 2.67 2.67 0 0 1-.4 0c-4.91 0-5.76.66-5.51-5 .01-.34 0-.74 0-1.15zm7.34.3h-.07a20.36 20.36 0 0 0 0-3.62 2.82 2.82 0 0 0-3.9-2.23c-2.27 1.21-3.61 7.34-2 9.39.16.21.39.49.6.5a15.81 15.81 0 0 0 4.74 0c.48-.13.49-2.1.7-3.24a4.61 4.61 0 0 0-.07-.8z"/><path class="cls-12" d="M731.63 119v.8c0 4.05-1.92 5.51-5.73 4.25a2.42 2.42 0 0 1-1.39-1.68 27.6 27.6 0 0 1 .05-6.38c.44-2.68 2.57-3.74 5.07-2.76 1.1.43 2.17 1 2 2.57a26.9 26.9 0 0 0 0 3.2zm-5.68-.53v1.61c.2 2.52 1.43 3 3.76 1.88 1.64-.78 1-2 1-3.06.09-2.52-1.12-3.73-3.46-3.54s-.97 2.01-1.3 3.1z"/><path class="cls-23" d="M650.86 77.31l.38 1.45c.38-.21 1-.36 1.09-.65a23.88 23.88 0 0 0 .85-5c.07-12 0-24.06 0-36.1 0-1.13-.41-2.58 1.58-2.47v1.61c-.78.26-.82.54 0 .83l.24 2.42h-.19a5.64 5.64 0 0 0 0 5.69L655 45l.67.82-.08.21c.09.85.34 1.48 1.41 1.44 1.43-.06 2.87 0 4.3 0 5.39 3.91 10.79 3 16.18 0 1 .12 2.1.22 3.14.37.38.05.76.34 1.11.29 2.19-.31 2.2-.33 2.2 1.79v27.45c-.39.06-1.11.09-1.11.19a49.08 49.08 0 0 0-.27 5.72c0 .19 1.37.53 2.06.44.36 0 .9-.91.86-1.37a23.4 23.4 0 0 0-.73-3.36c1.85.17 1.76-1.49 2.36-2.5l3.24.08v1.59a11.77 11.77 0 0 0-1.6 6.23v9.25c0 3.85-.85 4.71-4.65 4.72h-30.57c-4.24-.05-5.17-1-5.19-5.11 0-2.41.48-5-.21-7.19-.76-2.43-.33-4.75-.58-7.1-.13-1.23.49-1.68 1.66-1.61h1.61zm17.82-25c-6.4-.87-12.45 6-12.33 11.88a12.24 12.24 0 0 0 12 12.31c7.33 0 12.08-5 12.51-12.12.33-6.03-6.12-12.9-12.18-12.07z"/><path class="cls-18" d="M662.11 16.76c.54-1.61 1-3.26 1.67-4.81.19-.43 1-.58 1.56-.86a13.68 13.68 0 0 1 .77 3c0 1.34.42 1.93 1.85 1.88 1.73-.06 1.49-1.25 1.38-2.26-.16-1.42-.5-2.82-.76-4.22H671q3 5.66 6.07 11.32c.67 1.25 1.43 2.45 2.06 3.71s1 2.37 1.57 3.55v1.62c-2.71-.77-6.47-.35-5.76-5.06 0-.28-.4-.67-.68-1a6.25 6.25 0 0 1-1.64-5.15c.1-1.11-.23-1.77-1.52-1.77s-1.65.34-1.74 1.58c-.23 3.12 1 5.94 1.71 8.86.08.31.46.78.7.79 2.79 0 2.76 2.75 4.09 4.14-.2.83.52 2-.81 2.43a2.07 2.07 0 0 1-2.44 0c-1.21-3.11-2.31-3.78-5.29-3.22-1.9.36-2.76 1.72-2.78 4.54v9.18l-3.21.8a34.43 34.43 0 0 0 .73-5.45c-.05-2.76-.48-5.51-.75-8.27a3 3 0 0 0-1.51-3.28 19.77 19.77 0 0 1-3.32-3.16c2.06-.6 2.82-2 2.43-4.06 2.23-.35 3.81.33 4.62 2.61a4.15 4.15 0 0 0 1.47 1.6 5.26 5.26 0 0 0 1.41.54v-1.69c-.08-1.3-.26-2.61-.27-3.91-.02-3.95 0-3.95-4.03-3.98z"/><path class="cls-16" d="M681.29 32.31c1.31 3.59.94 7.33.93 11 0 2.4-.07 2.4-2.38 2.55-.8.05-1.59.07-2.39.1a1.11 1.11 0 0 0-.69-.19c0-3.18-.11-6.37-.07-9.55s.59-3.62 4-4a3.9 3.9 0 0 0 .6.09z"/><path class="cls-23" d="M662.11 16.76c4 0 4 0 4.05 4 0 1.3.19 2.61.27 3.91v1.69a5.26 5.26 0 0 1-1.43-.56 4.15 4.15 0 0 1-1.51-1.57c-.81-2.28-2.39-3-4.62-2.61-.1-1.76 1.21-2.44 2.4-3.29.45-.33.58-1.04.84-1.57z"/><path class="cls-18" d="M676.75 45.8a1.11 1.11 0 0 1 .69.19v1.46c-5.39 2.95-10.79 3.9-16.18 0v-.79h3.25c2.94 2.36 5.19 2.32 8 0 1.16 0 2.62.43 2.46-1.61z"/><path class="cls-23" d="M656.47 25.67a19.77 19.77 0 0 0 3.32 3.16 3 3 0 0 1 1.51 3.28c-1.35-.43-2.69-1.95-4 0l-.78.81h-.83c-.4-1-2.37-1.25-.95-3.08.79-1 .68-2.75 1-4.16a4.17 4.17 0 0 1 .73-.01zM668.58 9.49c.26 1.41.6 2.8.76 4.22.11 1 .35 2.2-1.38 2.26-1.43.05-1.81-.54-1.85-1.88a13.68 13.68 0 0 0-.77-3l.8-1.61z"/><path class="cls-18" d="M684.74 79a23.4 23.4 0 0 1 .73 3.36c0 .46-.5 1.32-.86 1.37-.69.09-2.06-.25-2.06-.44a49.08 49.08 0 0 1 .27-5.72c0-.1.73-.13 1.11-.19zM668.58 9.49h-2.44a32.19 32.19 0 0 1 .8-3.72 1.9 1.9 0 0 1 1.3-1.06c1.11-.14 1.15.77 1.15 1.59v1.58zM681.29 32.31a3.9 3.9 0 0 1-.62-.1v-2.52h.82c1.51 1 1.2 1.86-.2 2.62z"/><path class="cls-23" d="M668.58 9.49l.83-1.63c1.2-.11 1.71.45 1.6 1.62zM681.52 29.68h-.82v-1.61z"/><path class="cls-13" d="M650.85 77.31c-.54 0-1.07.08-1.61 0-1.17-.07-1.8.38-1.66 1.61.25 2.35-.18 4.67.58 7.1.69 2.2.19 4.78.21 7.19 0 4.12 1 5.06 5.19 5.11h30.57c3.8 0 4.63-.87 4.65-4.72v-9.25a11.77 11.77 0 0 1 1.6-6.23c0 5.5.05 11 0 16.5 0 3.58-1 4.55-4.49 4.56h-34.61c-3.62 0-4.56-.95-4.56-4.47 0-6.84.06-13.68.1-20.52 2.09.13 3.06 1.63 4.03 3.12zM690.35 76.58l-3.24-.08c.11-2.12 1.8-2 3.22-2.3z"/><path class="cls-16" d="M655.66 32.92h3.19l.84.79.63.82.06 3.24a5.34 5.34 0 0 0-.66 1.64c-.08 2.1 0 4.21-.05 6.32l-4.09.29.08-.21L655 45l-.19.05v-5.69h.19c1.48-1.5.37-3.33.63-5z"/><path class="cls-12" d="M655.59 34.42c-.26 1.65.86 3.48-.63 5l-.21-2.42v-2.44a4.38 4.38 0 0 0 .84-.14z"/><path class="cls-9" d="M763.84 45h-.39l.41-.39z"/><path class="cls-8" d="M559.49 66.08v3.2c-2.57 0-1.32-1.94-1.6-3.1zM543.33 68.48l-.56-.28.55-.54z"/><path class="cls-19" d="M717.13 119.15a4.61 4.61 0 0 1 0 .81c-.2 1.13-.21 3.11-.7 3.24a15.81 15.81 0 0 1-4.74 0c-.21 0-.44-.3-.6-.5-1.57-2-.24-8.18 2-9.39a2.82 2.82 0 0 1 3.9 2.23 20.36 20.36 0 0 1 0 3.62z"/><path class="cls-16" d="M668.68 52.31c6.06-.83 12.51 6 12.14 12.07-.43 7.16-5.18 12.1-12.51 12.12a12.24 12.24 0 0 1-12-12.31c-.08-5.91 5.97-12.75 12.37-11.88zm.25 4.75c-4.65-.14-7.5 2.36-7.64 6.7a7.42 7.42 0 0 0 7.56 7.93c3.68 0 6.84-3.35 7.08-7.23a6.71 6.71 0 0 0-7-7.4z"/><path class="cls-13" d="M660.38 37.78l-.06-3.24-.63-.82-.84-.79-1.59-.81c1.34-2 2.69-.44 4 0 .27 2.76.69 5.51.75 8.27a34.43 34.43 0 0 1-.73 5.45V47.45h-4.3c-1.07 0-1.32-.59-1.41-1.44l4.09-.29c.27-.38.77-.75.78-1.14.05-2.25-.02-4.53-.06-6.8zM654.77 39.36v5.69a5.64 5.64 0 0 1 0-5.69z"/><path class="cls-12" d="M655 45l.67.82z"/><path class="cls-13" d="M654.77 36.14v.83c-.82-.29-.77-.57 0-.83z"/><path class="cls-15" d="M672.59 46.64c-2.84 2.33-5.09 2.37-8 0v-1.61-9.18c0-2.82.88-4.18 2.78-4.54 3-.56 4.07.11 5.29 3.22q-.06 6.06-.07 12.11zM671 39.43v-3.61-.8c0-1.13 0-2.09-1.6-2.16-2-.08-3.13.39-3.2 2.06-.14 3.2-.08 6.41 0 9.61a1.62 1.62 0 0 0 .77 1.2c2.3 1 4-.14 4.07-2.7-.04-1.2-.04-2.4-.04-3.6z"/><path class="cls-23" d="M680.7 29.69v1.63c-1.65 0-3.36-.29-4.83.8-1.34-1.4-1.31-4.14-4.09-4.14-.24 0-.63-.47-.7-.79-.71-2.92-1.93-5.74-1.71-8.86.09-1.24.59-1.58 1.74-1.58s1.62.66 1.52 1.77a6.25 6.25 0 0 0 1.64 5.15c.27.29.72.68.68 1-.72 4.67 3.05 4.24 5.75 5.02zM672.59 46.64v-12.1a2.07 2.07 0 0 0 2.44 0v10.49c.18 2.03-1.28 1.59-2.44 1.61z"/><path class="cls-13" d="M675 45V34.51c1.33-.46.61-1.59.81-2.43 1.47-1.09 3.18-.78 4.83-.8v.9c-3.39.42-3.95.92-4 4s0 6.37.07 9.55z"/><path class="cls-9" d="M664.53 45v1.61h-3.23v-.82z"/><path class="cls-12" d="M657.27 32.12l1.59.81h-2.36zM660.38 37.78c0 2.27.11 4.55.06 6.82 0 .38-.51.76-.78 1.14 0-2.11 0-4.22.05-6.32a5.34 5.34 0 0 1 .67-1.64zM659.69 33.72l.63.82z"/><path d="M668.93 57.06a6.71 6.71 0 0 1 7 7.4c-.23 3.88-3.4 7.24-7.08 7.23a7.42 7.42 0 0 1-7.56-7.93c.14-4.34 2.98-6.84 7.64-6.7zm-2.59 8.27c-.47-1.51.55-3.21-1.44-3.26-1.44 0-2 1-2 2.41s.66 2.41 2.07 2.28c.57-.05 1.03-1.07 1.37-1.43z" fill="#ed973a"/><path class="cls-21" d="M671 39.43v3.61c0 2.56-1.77 3.72-4.07 2.7a1.62 1.62 0 0 1-.77-1.2c-.06-3.2-.12-6.41 0-9.61.07-1.67 1.16-2.14 3.2-2.06 1.57.06 1.62 1 1.6 2.16v.8q.04 1.79.04 3.6z"/><path class="cls-18" d="M666.34 65.33c-.33.37-.8 1.39-1.36 1.44-1.41.12-2.06-.86-2.07-2.28s.55-2.45 2-2.41c1.98.03.96 1.73 1.43 3.25z"/></g></g></svg>