<svg width="182px" height="52px" xmlns="http://www.w3.org/2000/svg" viewBox="0 0 474.15 97.02"><defs><style>.cls-1{fill:red;}.cls-1,.cls-2{fill-rule:evenodd;}</style></defs><title>Ресурс 1</title><g id="Слой_2" data-name="Слой 2"><g id="Слой_1-2" data-name="Слой 1"><path class="cls-1" d="M25.1,52.65,10.59,85.25H0L15.94,50.38C8.45,46.58,3.45,39.68,3.45,26.95,3.45,9.11,14.75.19,28.2.19H41.88V85.25H32.72V52.65H25.1ZM32.72,7.91H27.84c-7.38,0-14.52,4.88-14.52,19C13.32,40.63,19.86,45,27.84,45h4.88V7.91Z"/><path class="cls-2" d="M219.87,55.27c0-18.8,7.26-30.81,21.3-30.81a18.87,18.87,0,0,1,11.06,3.09l-1.31,8.8c-2.5-2.14-6.07-4.16-9.88-4.16-6.66,0-11.42,7.5-11.42,22.6s3.57,23.55,11.06,23.55a15.18,15.18,0,0,0,10.11-3.68l2.14,6.9a18.15,18.15,0,0,1-12.49,4.52c-12.85,0-20.58-10.35-20.58-30.81Zm-27.12.12V85.25h-9.28v-60h9.28V53l14.39-27.72h9.4l-14.87,28.2,17,31.76H208.57L192.75,55.39Zm-43.66-5.59h15.34c0-10.22-1.66-17.72-7-17.72-5.71,0-7.74,7-8.33,17.72Zm10.23,36.28c-12.37,0-20-9.87-20-28.31,0-19.27,5.35-33.31,18.08-33.31,10,0,16.54,7.49,16.54,27.84v5.11H149c0,13.56,3.81,20.7,11.18,20.7a20.81,20.81,0,0,0,11.78-4l2.14,7.14a23.6,23.6,0,0,1-14.75,4.88Zm-39.5-53.29H109.48v1.07c0,12.62-.59,31.05-5.59,43.78h15.94V32.78ZM133.74,97h-8.33V85.25H99.72V97H91.39V77.63h3.69c5.47-12.73,6.07-31.29,6.07-47.23V25.28H129V77.63h4.75V97ZM86,25.28v60H76.88V58.36H63.08V85.25H53.8v-60h9.28V50.75h13.8V25.28Z"/><path d="M302.31,4.89V85.21h-6V4.89h-16.8V0h39.68V4.89Zm31.1,77h0a9,9,0,0,0,7.09-3.45,25.68,25.68,0,0,0,4.58-8.34V53.51h-6.44q-7.5,0-11.08,3.57T324,68.53q0,6.43,2.56,9.89a8.12,8.12,0,0,0,6.86,3.46Zm13.34,3.34h0q-.35-1.19-.77-3a36.21,36.21,0,0,1-.66-5.07A19.34,19.34,0,0,1,340,83.89a13.08,13.08,0,0,1-17.64-2.08q-3.81-4.59-3.81-12.81,0-9.66,5.12-14.6t14.9-4.95h6.55V42q0-6.91-2.5-10t-7.51-3.1a15.31,15.31,0,0,0-12.63,6.55L320.9,30a15.23,15.23,0,0,1,5.42-4.23A19.14,19.14,0,0,1,335.08,24q7.51,0,11.5,4.23t4,13.16V74.13a55.93,55.93,0,0,0,.36,6.26,22.77,22.77,0,0,0,1,4.83Zm22.29,0h-5.6V25.15H369V53.39l20.14-28.24h5.48L374.88,53l21.21,32.17h-6.2L369,54.11v31.1Zm49.45-3.69h0a12.6,12.6,0,0,0,5.07-1,14.93,14.93,0,0,0,3.75-2.27,13.1,13.1,0,0,0,3.1-3.22l1.79,4.65a13.31,13.31,0,0,1-3.34,3.34,16.37,16.37,0,0,1-4.35,2.32,17.22,17.22,0,0,1-6.14,1q-9.06,0-14-8.16T399.43,55.3q0-14.89,4.89-23.12T418.49,24a17.53,17.53,0,0,1,7.87,1.61,16.4,16.4,0,0,1,5.24,4l-1.55,6a21.39,21.39,0,0,0-4.89-4.77,11.22,11.22,0,0,0-6.67-2q-6.91,0-10.19,6.91T405,55.3q0,12.4,3.22,19.31t10.25,6.91Zm50.3-38.14h0a60.19,60.19,0,0,1,.48-8.22h-.36A29.65,29.65,0,0,1,467.48,39q-.84,1.85-1.78,3.87L446.14,85.21h-4.76V25.15h5.25V66.86a69.9,69.9,0,0,1-.48,8.46h.36a37.58,37.58,0,0,1,1.43-4c.56-1.31,1.16-2.64,1.79-4l19.55-42.19h4.89V85.21h-5.37V43.38Z"/></g></g></svg>