<svg xmlns="http://www.w3.org/2000/svg" viewBox="-3278.509 -2802.641 107.442 62.392"><defs><style>.cls-1 { fill: #f98c2d; }</style></defs><g id="Group_96" data-name="Group 96"><path id="Path_201" data-name="Path 201" class="cls-1" d="M-3172.802-2761.041v-38.131h-41.58v38.131h-8.672v-41.6h-31.2v24.259h-20.786v17.322h-3.469v10.406h8.8a12.113 12.113 0 0 0 23.984 0h8.946a12.113 12.113 0 0 0 23.984 0h8.946a12.113 12.113 0 0 0 23.984 0h8.8v-10.406h-1.734zm-38.133-34.663h34.665v34.663h-34.665zm-60.637 20.791h20.79v-24.259h24.26v38.131h-45.05v-13.872zm13.853 31.2a8.665 8.665 0 0 1-8.481-6.937h16.984a8.689 8.689 0 0 1-8.503 6.933zm32.93 0a8.665 8.665 0 0 1-8.481-6.937h16.984a8.706 8.706 0 0 1-8.502 6.933zm32.93 0a8.665 8.665 0 0 1-8.481-6.937h16.985a8.706 8.706 0 0 1-8.503 6.933zm17.322-10.406h-100.503v-3.469h100.5z"/><path id="Path_202" data-name="Path 202" class="cls-1" d="M-3245.579-2771.445h13.853v-19.056h-13.853zm3.469-15.588h6.937v12.14h-6.937z"/><path id="Path_203" data-name="Path 203" class="cls-1" d="M-3203.998-2769.711h20.79v-20.79h-20.79zm3.469-17.322h13.853v13.853h-13.853z"/></g></svg>