<svg xmlns="http://www.w3.org/2000/svg" viewBox="-2900.889 -2803.699 71.778 55.465"><defs><style>.cls-1 { fill: #f1d547; }</style></defs><g id="Group_80" data-name="Group 80"><path id="Path_124" data-name="Path 124" class="cls-1" d="M-2881.007-2803.699a5.718 5.718 0 0 0-5.353 3.645c-.011.029-.04.047-.051.076l-2.651 6.066h-6.117a5.71 5.71 0 0 0 0 11.419h.1a9.831 9.831 0 0 0-2.549 6.6v16.24a1.631 1.631 0 0 0 1.631 1.631h4.894v8.157a1.631 1.631 0 0 0 1.631 1.631h9.788a1.631 1.631 0 0 0 1.631-1.631v-8.157h26.1v8.157a1.631 1.631 0 0 0 1.631 1.631h9.788a1.631 1.631 0 0 0 1.631-1.631v-8.157h4.894a1.631 1.631 0 0 0 1.631-1.631v-16.237a9.831 9.831 0 0 0-2.549-6.6h.1a5.71 5.71 0 1 0 0-11.419h-6.111l-2.651-6.069c-.011-.029-.04-.047-.051-.076a5.718 5.718 0 0 0-5.349-3.645zm0 3.263h32.018a3.274 3.274 0 0 1 2.345 1.606q.012.039.026.076l5.71 13.1a9.591 9.591 0 0 0-1.274-.1h-45.631a9.589 9.589 0 0 0-1.274.1l5.71-13.1q.014-.038.025-.076a3.274 3.274 0 0 1 2.345-1.606zm-14.172 9.788h4.69l-2.141 4.894h-2.549a2.447 2.447 0 0 1 0-4.894zm55.669 0h4.69a2.447 2.447 0 0 1 0 4.894h-2.549zm-48.3 8.157h45.621a6.53 6.53 0 0 1 6.551 6.6v14.606h-58.726v-14.605a6.53 6.53 0 0 1 6.551-6.602zm-1.81 6.525a1.631 1.631 0 0 0-1.478 1.631v8.156a1.631 1.631 0 0 0 1.631 1.631h6.7a5.713 5.713 0 0 0 0-11.419h-6.7q-.079-.003-.156 0zm42.389 0a5.713 5.713 0 0 0 0 11.419h6.7a1.631 1.631 0 0 0 1.631-1.631v-8.157a1.631 1.631 0 0 0-1.631-1.631zm-40.607 3.267h5.072a2.454 2.454 0 0 1 0 4.894h-5.072zm40.6 0h5.072v4.894h-5.068a2.454 2.454 0 0 1 0-4.894zm-40.6 14.682h6.525v6.518h-6.525zm39.152 0h6.525v6.518h-6.528z"/></g></svg>