<svg width="139" height="99" xmlns="http://www.w3.org/2000/svg" viewBox="-2566 -2822 118.093 67.072"><defs><style>.cls-1{fill:#000203;fill-rule:evenodd}</style></defs><g id="Group_90" data-name="Group 90" transform="translate(-3505 -4684)"><g id="uber-icon" transform="translate(952 1911)"><g id="Group"><path id="Fill-1" class="cls-1" d="M13.618.436V10.4c0 3.327-1.473 4.709-4.927 4.709S3.763 13.727 3.763 10.4V0H.436A.386.386 0 0 0 0 .436v10.127c0 5.564 3.545 7.509 8.691 7.509s8.69-1.945 8.69-7.509V0h-3.327a.386.386 0 0 0-.436.436"/><path id="Fill-2" class="cls-1" d="M175.714 2.891a.457.457 0 0 0 .486-.291l.964-2.382c.055-.145 0-.218-.146-.218h-13.4c-1.255 0-1.727.382-1.727 1.236v15.472c0 .727.363 1.055 1.327 1.055h12.49a.458.458 0 0 0 .491-.291l.964-2.382c.055-.145 0-.218-.146-.218h-11.43v-3.145c0-1.091.6-1.582 2.218-1.582h4.964a.458.458 0 0 0 .491-.29l.927-2.291c.054-.146 0-.218-.146-.218h-8.454V2.891h10.127" transform="translate(-113.864)"/><path id="Fill-3" class="cls-1" d="M92.888 14.909h-6.565v-3.255c0-1.091.6-1.582 2.218-1.582h4.347c2.091 0 2.673.8 2.673 2.436s-.582 2.401-2.673 2.401zM86.323 2.854H92.2c1.963 0 2.509.74 2.509 2.273S94.161 7.4 92.2 7.4h-5.877zM96.379 8.4a4.074 4.074 0 0 0 2.054-3.891C98.433.582 95.233 0 91.924 0h-7.563c-1.255 0-1.727.382-1.727 1.236v15.472c0 .727.363 1.055 1.327 1.055h9.309c3.509 0 6.018-1.364 6.018-4.909 0-2.127-.909-3.927-2.909-4.454z" transform="translate(-58.118)"/><path id="Fill-4" class="cls-1" d="M244.842 8.236h-6.182V2.855h6.182c2.309 0 2.818.891 2.818 2.691 0 1.817-.509 2.69-2.818 2.69zm6.945 9.218l-3.982-6.836c1.982-.509 3.582-1.818 3.582-5.145C251.388 1.164 248.715 0 244.3 0h-7.6c-1.254 0-1.727.382-1.727 1.236v16.09a.386.386 0 0 0 .436.436h3.254v-5.18c0-1.091.6-1.582 2.218-1.582h3.272l3.6 6.473a.5.5 0 0 0 .491.291h3.382c.236 0 .236-.2.163-.309z" transform="translate(-165.258)"/></g></g><g id="ya-taxi-icon" transform="translate(939 1862)"><g id="Слой_1" data-name="Слой 1"><path id="Path_214" data-name="Path 214" d="M6.251 13.255l-3.614 8.119H0l3.97-8.684C2.1 11.743.859 10.025.859 6.855.859 2.412 3.674.19 7.023.19h3.407v21.184H8.149v-8.119zm1.9-11.143H6.934c-1.838 0-3.616 1.215-3.616 4.732 0 3.417 1.629 4.505 3.616 4.505h1.215z" transform="translate(0 -.143)" fill="red" fill-rule="evenodd"/><path id="Path_215" data-name="Path 215" d="M95.16 32.124c0-4.682 1.808-7.673 5.3-7.673a4.7 4.7 0 0 1 2.755.77l-.326 2.192a3.959 3.959 0 0 0-2.461-1.036c-1.659 0-2.844 1.868-2.844 5.629s.889 5.865 2.755 5.865a3.781 3.781 0 0 0 2.518-.917l.533 1.718a4.52 4.52 0 0 1-3.111 1.126c-3.2 0-5.125-2.578-5.125-7.673zm-6.754.03v7.436h-2.312V24.647h2.311v6.911l3.584-6.9h2.341l-3.7 7.023 4.234 7.91h-2.518zm-10.874-1.393h3.82c0-2.545-.413-4.413-1.743-4.413-1.422 0-1.928 1.743-2.075 4.413zM80.08 39.8c-3.08 0-4.98-2.461-4.98-7.054 0-4.8 1.332-8.3 4.5-8.3 2.491 0 4.119 1.865 4.119 6.934v1.273H77.51c0 3.377.949 5.155 2.784 5.155a5.183 5.183 0 0 0 2.934-1l.533 1.778a5.878 5.878 0 0 1-3.674 1.215zm-9.838-13.275h-2.575v.266c0 3.143-.147 7.733-1.392 10.9h3.97V26.523zm3.467 15.992h-2.074V39.59h-6.4v2.926h-2.073v-4.824h.919c1.362-3.17 1.512-7.793 1.512-11.763v-1.274h6.936v13.037h1.183v4.824zm-11.89-17.862V39.6h-2.271v-6.7h-3.437v6.7H53.8V24.647h2.311V31h3.437v-6.345z" transform="translate(-40.401 -18.359)" fill-rule="evenodd"/><path id="Path_216" data-name="Path 216" d="M285.188 1.218v20h-1.494v-20h-4.184V0h9.882v1.218zm7.745 19.177a2.242 2.242 0 0 0 1.766-.859 6.4 6.4 0 0 0 1.141-2.077v-4.132h-1.6a3.768 3.768 0 0 0-2.759.889 3.886 3.886 0 0 0-.887 2.852 4.087 4.087 0 0 0 .638 2.463 2.022 2.022 0 0 0 1.708.862zm3.322.832q-.087-.3-.192-.747a9.022 9.022 0 0 1-.164-1.263 4.817 4.817 0 0 1-1.325 1.676 3.258 3.258 0 0 1-4.393-.518 4.856 4.856 0 0 1-.949-3.19 4.827 4.827 0 0 1 1.275-3.636 5.146 5.146 0 0 1 3.711-1.233h1.631V10.46a3.967 3.967 0 0 0-.623-2.491 2.269 2.269 0 0 0-1.87-.772 3.813 3.813 0 0 0-3.146 1.631l-.393-1.357a3.793 3.793 0 0 1 1.35-1.053 4.767 4.767 0 0 1 2.182-.441 3.749 3.749 0 0 1 2.864 1.053 4.651 4.651 0 0 1 1 3.278v8.154a13.934 13.934 0 0 0 .09 1.559 5.67 5.67 0 0 0 .249 1.2zm5.551 0h-1.395V6.264h1.389V13.3l5.016-7.033h1.365l-4.919 6.933 5.282 8.012H307l-5.2-7.736v7.745zm12.316-.919a3.138 3.138 0 0 0 1.263-.249 3.718 3.718 0 0 0 .934-.565 3.263 3.263 0 0 0 .772-.8l.446 1.158a3.315 3.315 0 0 1-.832.832 4.077 4.077 0 0 1-1.083.578 4.289 4.289 0 0 1-1.529.249 3.867 3.867 0 0 1-3.487-2.032 11.047 11.047 0 0 1-1.23-5.7 11.329 11.329 0 0 1 1.218-5.758 3.851 3.851 0 0 1 3.529-2.037 4.366 4.366 0 0 1 1.96.4 4.084 4.084 0 0 1 1.305 1L317 8.869a5.327 5.327 0 0 0-1.218-1.188 2.794 2.794 0 0 0-1.661-.5 2.673 2.673 0 0 0-2.536 1.719 11.683 11.683 0 0 0-.822 4.869 11.649 11.649 0 0 0 .8 4.809 2.664 2.664 0 0 0 2.553 1.721zm12.527-9.5a14.988 14.988 0 0 1 .12-2.047h-.09a7.39 7.39 0 0 1-.356.951q-.209.461-.443.964l-4.871 10.545h-1.185V6.264h1.307v10.388a17.411 17.411 0 0 1-.12 2.107h.09a9.353 9.353 0 0 1 .356-1c.139-.326.289-.657.446-1l4.869-10.507h1.218v14.97h-1.337V10.8z" transform="translate(-209.898)"/></g></g></g></svg>