<svg xmlns="http://www.w3.org/2000/svg" viewBox="-3264.389 -2466.389 78.779 78.779"><defs><style>.cls-1 { fill: #f1d547; }</style></defs><path id="Path_177" data-name="Path 177" class="cls-1" d="M-3241.216-2387.611a1.889 1.889 0 0 0 1.659-1.231l1.1-3.8a16.472 16.472 0 0 0 1.82-.749l3.425 1.927a1.764 1.764 0 0 0 2.06-.294l3.72-3.719a1.762 1.762 0 0 0 .268-2.034l-1.927-3.479a16.279 16.279 0 0 0 .776-1.793l3.8-1.1a1.762 1.762 0 0 0 1.231-1.632v-5.272a1.76 1.76 0 0 0-1.231-1.659l-3.8-1.07a16.289 16.289 0 0 0-.776-1.793l1.927-3.479a1.762 1.762 0 0 0-.268-2.034l-3.72-3.72a1.764 1.764 0 0 0-2.06-.294l-3.425 1.927a16.5 16.5 0 0 0-1.846-.776l-1.07-3.773a1.763 1.763 0 0 0-1.659-1.258h-5.248a1.768 1.768 0 0 0-1.659 1.258l-1.07 3.773a16.506 16.506 0 0 0-1.846.776l-3.425-1.927a1.764 1.764 0 0 0-2.06.294l-3.719 3.72a1.762 1.762 0 0 0-.268 2.034l1.927 3.479a16.29 16.29 0 0 0-.776 1.793l-3.8 1.07a1.763 1.763 0 0 0-1.233 1.662v5.272a1.767 1.767 0 0 0 1.231 1.632l3.8 1.1a16.317 16.317 0 0 0 .776 1.793l-1.927 3.479a1.762 1.762 0 0 0 .268 2.034l3.719 3.719a1.764 1.764 0 0 0 2.06.294l3.425-1.927a16.458 16.458 0 0 0 1.82.749l1.1 3.8a1.763 1.763 0 0 0 1.659 1.231zm-1.284-3.425h-2.676l-.963-3.318a1.746 1.746 0 0 0-1.177-1.177 12.923 12.923 0 0 1-2.97-1.231 1.746 1.746 0 0 0-1.686-.026l-3.024 1.686-1.9-1.873 1.686-3.051a1.746 1.746 0 0 0 0-1.659 13.011 13.011 0 0 1-1.258-2.97 1.746 1.746 0 0 0-1.177-1.2l-3.318-.963v-2.676l3.318-.937a1.746 1.746 0 0 0 1.177-1.2 13.015 13.015 0 0 1 1.258-2.97 1.747 1.747 0 0 0 0-1.686l-1.686-3.024 1.873-1.873 3.051 1.686a1.747 1.747 0 0 0 1.686-.027 12.933 12.933 0 0 1 2.97-1.231 1.745 1.745 0 0 0 1.177-1.177l.963-3.345h2.676l.963 3.345a1.746 1.746 0 0 0 1.177 1.177 12.934 12.934 0 0 1 2.97 1.231 1.746 1.746 0 0 0 1.686.027l3.051-1.686 1.873 1.873-1.686 3.024a1.747 1.747 0 0 0 0 1.686 13.01 13.01 0 0 1 1.258 2.97 1.747 1.747 0 0 0 1.177 1.2l3.318.936v2.676l-3.318.963a1.747 1.747 0 0 0-1.177 1.2 13.011 13.011 0 0 1-1.258 2.97 1.745 1.745 0 0 0 0 1.659l1.686 3.05-1.9 1.873-3.024-1.686a1.747 1.747 0 0 0-1.686.027 12.94 12.94 0 0 1-2.97 1.231 1.746 1.746 0 0 0-1.177 1.177l-.963 3.318zm-1.338-9.419a7.707 7.707 0 1 0-7.707-7.707 7.733 7.733 0 0 0 7.707 7.707zm0-3.425a4.281 4.281 0 1 1 4.281-4.281 4.256 4.256 0 0 1-4.281 4.281zm37.356-14.557a1.919 1.919 0 0 0 1.659-1.231l1.311-4.629a18.99 18.99 0 0 0 2.408-1.017l4.228 2.355a1.763 1.763 0 0 0 2.06-.294l4.388-4.388a1.762 1.762 0 0 0 .268-2.034l-2.328-4.2a19.2 19.2 0 0 0 1.017-2.435l4.629-1.338a1.762 1.762 0 0 0 1.231-1.632v-6.235a1.76 1.76 0 0 0-1.231-1.659l-4.629-1.311a18.994 18.994 0 0 0-1.017-2.435l2.328-4.2a1.762 1.762 0 0 0-.268-2.034l-4.388-4.395a1.763 1.763 0 0 0-2.06-.294l-4.2 2.328a18.937 18.937 0 0 0-2.435-.99l-1.311-4.629a1.763 1.763 0 0 0-1.659-1.258h-6.208a1.768 1.768 0 0 0-1.659 1.258l-1.311 4.629a18.929 18.929 0 0 0-2.435.99l-4.2-2.328a1.764 1.764 0 0 0-2.061.294l-4.388 4.388a1.762 1.762 0 0 0-.268 2.034l2.328 4.2a18.98 18.98 0 0 0-1.017 2.435l-4.629 1.311a1.763 1.763 0 0 0-1.231 1.659v6.235a1.767 1.767 0 0 0 1.231 1.632l4.629 1.338a19.191 19.191 0 0 0 1.017 2.435l-2.328 4.2a1.762 1.762 0 0 0 .268 2.034l4.388 4.388a1.764 1.764 0 0 0 2.061.294l4.228-2.355a18.978 18.978 0 0 0 2.408 1.017l1.311 4.629a1.763 1.763 0 0 0 1.659 1.231zm-1.284-3.425h-3.64l-1.177-4.148a1.746 1.746 0 0 0-1.2-1.177 15.67 15.67 0 0 1-3.586-1.5 1.746 1.746 0 0 0-1.686 0l-3.773 2.114-2.569-2.569 2.114-3.8a1.747 1.747 0 0 0-.027-1.686 15.6 15.6 0 0 1-1.472-3.586 1.747 1.747 0 0 0-1.2-1.177l-4.148-1.2v-3.612l4.148-1.2a1.748 1.748 0 0 0 1.2-1.2 15.4 15.4 0 0 1 1.472-3.559 1.746 1.746 0 0 0 .027-1.686l-2.114-3.8 2.569-2.569 3.773 2.114a1.746 1.746 0 0 0 1.686 0 15.673 15.673 0 0 1 3.586-1.5 1.746 1.746 0 0 0 1.2-1.177l1.177-4.174h3.639l1.177 4.174a1.747 1.747 0 0 0 1.2 1.177 15.675 15.675 0 0 1 3.586 1.5 1.746 1.746 0 0 0 1.686 0l3.773-2.114 2.569 2.569-2.114 3.8a1.747 1.747 0 0 0 .027 1.686 15.4 15.4 0 0 1 1.474 3.548 1.747 1.747 0 0 0 1.2 1.2l4.148 1.2v3.612l-4.148 1.2a1.747 1.747 0 0 0-1.2 1.177 15.6 15.6 0 0 1-1.472 3.586 1.746 1.746 0 0 0-.027 1.686l2.114 3.8-2.569 2.569-3.773-2.114a1.746 1.746 0 0 0-1.686 0 15.672 15.672 0 0 1-3.586 1.5 1.746 1.746 0 0 0-1.2 1.177zm-1.823-11.132a9.419 9.419 0 1 0-9.419-9.419 9.445 9.445 0 0 0 9.419 9.419zm0-3.425a5.994 5.994 0 1 1 5.994-5.994 5.968 5.968 0 0 1-5.994 5.994z"/></svg>