<svg xmlns="http://www.w3.org/2000/svg" viewBox="-2928.469 -2450.928 127.337 47.757"><defs><style>.cls-1 { fill: #f98c2d; }</style></defs><g id="Group_98" data-name="Group 98"><path id="Path_204" data-name="Path 204" class="cls-1" d="M-2926.136-2419.148a2.3325 2.3325 0 1 0 0 4.665h5.831v8.98a2.3325 2.3325 0 0 0 4.665 0v-8.98h16.736a2.3325 2.3325 0 1 0 0-4.665h-16.735v-4.84h9.038a13.47 13.47 0 0 0 0-26.94h-11.313a2.269 2.269 0 0 0-2.274 1.924 2.927 2.927 0 0 0-.117.7v19.593h-5.831a2.3325 2.3325 0 1 0 0 4.665h5.831v4.84h-5.831zm10.5-27.115h9.038a8.805 8.805 0 1 1 0 17.61h-9.041z"/><path id="Path_205" data-name="Path 205" class="cls-1" d="M-2880.136-2419.148a2.3325 2.3325 0 1 0 0 4.665h5.831v8.98a2.3325 2.3325 0 0 0 4.665 0v-8.98h16.736a2.3325 2.3325 0 1 0 0-4.665h-16.735v-4.84h9.038a13.47 13.47 0 0 0 0-26.94h-11.313a2.269 2.269 0 0 0-2.274 1.924 2.927 2.927 0 0 0-.117.7v19.593h-5.831a2.3325 2.3325 0 1 0 0 4.665h5.831v4.84h-5.831zm10.5-27.115h9.038a8.805 8.805 0 1 1 0 17.61h-9.041z"/><path id="Path_206" data-name="Path 206" class="cls-1" d="M-2834.136-2419.148a2.3325 2.3325 0 1 0 0 4.665h5.831v8.98a2.3325 2.3325 0 0 0 4.665 0v-8.98h16.736a2.3325 2.3325 0 1 0 0-4.665h-16.735v-4.84h9.038a13.47 13.47 0 0 0 0-26.94h-11.313a2.269 2.269 0 0 0-2.274 1.924 2.927 2.927 0 0 0-.117.7v19.593h-5.831a2.3325 2.3325 0 1 0 0 4.665h5.831v4.84h-5.831zm10.5-27.115h9.038a8.805 8.805 0 1 1 0 17.61h-9.041z"/></g></svg>