<svg xmlns="http://www.w3.org/2000/svg" viewBox="-2570 -2459 132.9 64.7"><defs><style>.cls-1 { fill: #f1d547; }</style></defs><g id="Group_99" data-name="Group 99"><path id="Path_207" data-name="Path 207" class="cls-1" d="M-2568.219-2458.998a2 2 0 0 0-1.781 2.031v22.094a9.985 9.985 0 0 0 8 9.719v28.187a2 2 0 1 0 4 0v-28.187a9.985 9.985 0 0 0 8-9.719v-22.094a2 2 0 1 0-4 0v22.094a5.861 5.861 0 0 1-4 5.594v-27.5a2 2 0 1 0-4 0v27.5a5.861 5.861 0 0 1-4-5.594v-22.094a2 2 0 0 0-2.031-2.031q-.094-.005-.188 0zm32.219.031a10.951 10.951 0 0 0-11 11v22a2 2 0 0 0 2 2h7v27a2 2 0 1 0 4 0v-53a2 2 0 1 0-4 0v22h-5v-20a6.76 6.76 0 0 1 7-7 2 2 0 1 0 0-4z"/><path id="Path_208" data-name="Path 208" class="cls-1" d="M-2437.1-2418.5a3.553 3.553 0 0 0-.2-1l-7.8-18.5v-18.5a2.476 2.476 0 0 0-2.5-2.5h-50.8a2.476 2.476 0 0 0-2.5 2.5v18.5l-7.8 18.5a2.958 2.958 0 0 0-.2 1v24.2h5v-9.8h61.7v9.8h5v-11.4h-.1a1.949 1.949 0 0 0 .1-.8v-12zm-60-15.5h6.4v2.8a2.476 2.476 0 0 0 2.5 2.5h30.6a2.476 2.476 0 0 0 2.5-2.5v-2.8h6.3l5.5 13h-59.3zm36.9-9.3v9.7h-10.3v-9.7zm-15.3 9.7h-10.3v-9.7h10.3zm-20.4-20.4h45.7v15h-5.1v-6.8a2.476 2.476 0 0 0-2.5-2.5h-30.5a2.476 2.476 0 0 0-2.5 2.5v6.8h-5.1zm-8 38h61.7v7h-61.7z"/></g></svg>